<?xml version="1.0" encoding="utf-8" standalone="no"?>
<!DOCTYPE svg PUBLIC "-//W3C//DTD SVG 1.1//EN"
  "http://www.w3.org/Graphics/SVG/1.1/DTD/svg11.dtd">
<svg xmlns:xlink="http://www.w3.org/1999/xlink" width="581.573619pt" height="452.810781pt" viewBox="0 0 581.573619 452.810781" xmlns="http://www.w3.org/2000/svg" version="1.1">
 <metadata>
  <rdf:RDF xmlns:dc="http://purl.org/dc/elements/1.1/" xmlns:cc="http://creativecommons.org/ns#" xmlns:rdf="http://www.w3.org/1999/02/22-rdf-syntax-ns#">
   <cc:Work>
    <dc:type rdf:resource="http://purl.org/dc/dcmitype/StillImage"/>
    <dc:date>2026-09-12T00:09:57.866269</dc:date>
    <dc:format>image/svg+xml</dc:format>
    <dc:creator>
     <cc:Agent>
      <dc:title>Matplotlib v3.10.7, https://matplotlib.org/</dc:title>
     </cc:Agent>
    </dc:creator>
   </cc:Work>
  </rdf:RDF>
 </metadata>
 <defs>
  <style type="text/css">*{stroke-linejoin: round; stroke-linecap: butt}</style>
 </defs>
 <g id="figure_1">
  <g id="patch_1">
   <path d="M 0 452.810781 
L 581.573619 452.810781 
L 581.573619 0 
L 0 0 
z
" style="fill: #ffffff"/>
  </g>
  <g id="axes_1">
   <g id="patch_2">
    <path d="M 49.124375 413.851406 
L 378.608775 413.851406 
L 378.608775 31.691406 
L 49.124375 31.691406 
z
" style="fill: #ffffff"/>
   </g>
   <g id="matplotlib.axis_1">
    <g id="xtick_1">
     <g id="line2d_1">
      <path d="M 76.496843 413.851406 
L 76.496843 31.691406 
" clip-path="url(#p6a21579324)" style="fill: none; stroke-dasharray: 0.8,1.32; stroke-dashoffset: 0; stroke: #b0b0b0; stroke-opacity: 0.25; stroke-width: 0.8"/>
     </g>
     <g id="line2d_2">
      <defs>
       <path id="m92428a1711" d="M 0 0 
L 0 3.5 
" style="stroke: #000000; stroke-width: 0.8"/>
      </defs>
      <g>
       <use xlink:href="#m92428a1711" x="76.496843" y="413.851406" style="stroke: #000000; stroke-width: 0.8"/>
      </g>
     </g>
     <g id="text_1">
      <!-- 0 -->
      <g transform="translate(73.131999 428.560781) scale(0.1 -0.1)">
       <defs>
        <path id="HiraginoSans-W4-30" d="M 2144 -90 
C 2758 -90 3232 141 3565 602 
C 3846 998 4019 1696 4019 2464 
C 4019 3002 3936 3501 3770 3949 
C 3693 4160 3558 4371 3379 4550 
C 3078 4858 2650 5024 2157 5024 
C 1498 5024 986 4742 666 4205 
C 435 3834 288 3142 288 2458 
C 288 1939 371 1434 538 986 
C 614 768 749 563 928 384 
C 1242 70 1651 -90 2144 -90 
z
M 2144 4499 
C 2592 4499 2918 4307 3123 3923 
C 3283 3629 3398 3014 3398 2470 
C 3398 2022 3341 1619 3213 1235 
C 3155 1043 3046 870 2912 730 
C 2726 538 2458 435 2150 435 
C 1734 435 1414 614 1197 973 
C 1024 1261 902 1875 902 2451 
C 902 2906 966 3328 1088 3699 
C 1139 3866 1235 4026 1370 4173 
C 1568 4397 1818 4499 2144 4499 
z
" transform="scale(0.015625)"/>
       </defs>
       <use xlink:href="#HiraginoSans-W4-30"/>
      </g>
     </g>
    </g>
    <g id="xtick_2">
     <g id="line2d_3">
      <path d="M 131.241779 413.851406 
L 131.241779 31.691406 
" clip-path="url(#p6a21579324)" style="fill: none; stroke-dasharray: 0.8,1.32; stroke-dashoffset: 0; stroke: #b0b0b0; stroke-opacity: 0.25; stroke-width: 0.8"/>
     </g>
     <g id="line2d_4">
      <g>
       <use xlink:href="#m92428a1711" x="131.241779" y="413.851406" style="stroke: #000000; stroke-width: 0.8"/>
      </g>
     </g>
     <g id="text_2">
      <!-- 2 -->
      <g transform="translate(127.876935 428.560781) scale(0.1 -0.1)">
       <defs>
        <path id="HiraginoSans-W4-32" d="M 3078 0 
C 3424 0 3642 -6 3917 -32 
L 3917 589 
C 3693 557 3430 544 3091 544 
L 1114 544 
C 1280 1114 1606 1478 2451 2042 
C 3181 2528 3341 2656 3546 2912 
C 3738 3142 3846 3443 3846 3744 
C 3846 4525 3200 5030 2202 5030 
C 1613 5030 1158 4858 858 4518 
C 640 4269 531 4026 442 3565 
L 1088 3469 
C 1139 3782 1190 3936 1306 4102 
C 1491 4371 1792 4506 2208 4506 
C 2816 4506 3206 4211 3206 3744 
C 3206 3360 2995 3085 2387 2675 
C 1754 2246 1600 2138 1389 1952 
C 979 1594 710 1229 544 806 
C 448 563 429 461 365 -26 
C 576 -6 678 0 1107 0 
L 3078 0 
z
" transform="scale(0.015625)"/>
       </defs>
       <use xlink:href="#HiraginoSans-W4-32"/>
      </g>
     </g>
    </g>
    <g id="xtick_3">
     <g id="line2d_5">
      <path d="M 185.986715 413.851406 
L 185.986715 31.691406 
" clip-path="url(#p6a21579324)" style="fill: none; stroke-dasharray: 0.8,1.32; stroke-dashoffset: 0; stroke: #b0b0b0; stroke-opacity: 0.25; stroke-width: 0.8"/>
     </g>
     <g id="line2d_6">
      <g>
       <use xlink:href="#m92428a1711" x="185.986715" y="413.851406" style="stroke: #000000; stroke-width: 0.8"/>
      </g>
     </g>
     <g id="text_3">
      <!-- 4 -->
      <g transform="translate(182.611715 428.560781) scale(0.1 -0.1)">
       <defs>
        <path id="HiraginoSans-W4-34" d="M 179 1210 
C 403 1229 589 1235 954 1235 
L 2688 1235 
L 2688 710 
C 2688 410 2675 218 2630 0 
L 3309 0 
C 3270 230 3258 390 3258 704 
L 3258 1235 
L 3494 1235 
C 3763 1235 3910 1222 4154 1190 
L 4154 1798 
C 3917 1766 3750 1754 3494 1754 
L 3258 1754 
L 3258 3853 
C 3258 4358 3264 4544 3296 4934 
L 2701 4934 
C 2560 4704 2445 4550 2214 4269 
L 621 2298 
C 467 2099 326 1939 179 1773 
L 179 1210 
z
M 2688 1747 
L 858 1747 
L 2259 3514 
C 2464 3763 2592 3936 2720 4128 
C 2694 3814 2688 3622 2688 3283 
L 2688 1747 
z
" transform="scale(0.015625)"/>
       </defs>
       <use xlink:href="#HiraginoSans-W4-34"/>
      </g>
     </g>
    </g>
    <g id="xtick_4">
     <g id="line2d_7">
      <path d="M 240.731651 413.851406 
L 240.731651 31.691406 
" clip-path="url(#p6a21579324)" style="fill: none; stroke-dasharray: 0.8,1.32; stroke-dashoffset: 0; stroke: #b0b0b0; stroke-opacity: 0.25; stroke-width: 0.8"/>
     </g>
     <g id="line2d_8">
      <g>
       <use xlink:href="#m92428a1711" x="240.731651" y="413.851406" style="stroke: #000000; stroke-width: 0.8"/>
      </g>
     </g>
     <g id="text_4">
      <!-- 6 -->
      <g transform="translate(237.366807 428.560781) scale(0.1 -0.1)">
       <defs>
        <path id="HiraginoSans-W4-36" d="M 3846 3994 
C 3706 4301 3616 4442 3462 4602 
C 3187 4877 2784 5024 2304 5024 
C 1683 5024 1222 4794 864 4307 
C 557 3891 371 3162 371 2355 
C 371 1446 614 704 1043 320 
C 1331 58 1773 -90 2253 -90 
C 3277 -90 3968 589 3968 1587 
C 3968 2586 3334 3213 2323 3213 
C 1894 3213 1568 3104 1274 2854 
C 1133 2739 1062 2656 941 2458 
C 979 3085 1043 3392 1210 3763 
C 1434 4262 1798 4518 2285 4518 
C 2765 4518 3040 4314 3238 3821 
L 3846 3994 
z
M 2266 2714 
C 2950 2714 3366 2285 3366 1574 
C 3366 1325 3309 1088 3206 922 
C 3008 614 2643 422 2234 422 
C 1568 422 1069 915 1069 1574 
C 1069 2234 1574 2714 2266 2714 
z
" transform="scale(0.015625)"/>
       </defs>
       <use xlink:href="#HiraginoSans-W4-36"/>
      </g>
     </g>
    </g>
    <g id="xtick_5">
     <g id="line2d_9">
      <path d="M 295.476587 413.851406 
L 295.476587 31.691406 
" clip-path="url(#p6a21579324)" style="fill: none; stroke-dasharray: 0.8,1.32; stroke-dashoffset: 0; stroke: #b0b0b0; stroke-opacity: 0.25; stroke-width: 0.8"/>
     </g>
     <g id="line2d_10">
      <g>
       <use xlink:href="#m92428a1711" x="295.476587" y="413.851406" style="stroke: #000000; stroke-width: 0.8"/>
      </g>
     </g>
     <g id="text_5">
      <!-- 8 -->
      <g transform="translate(292.111743 428.560781) scale(0.1 -0.1)">
       <defs>
        <path id="HiraginoSans-W4-38" d="M 1446 2586 
C 1203 2547 1056 2490 851 2355 
C 480 2106 294 1754 294 1299 
C 294 397 966 -102 2163 -102 
C 3347 -102 4006 397 4006 1299 
C 4006 1728 3853 2061 3539 2304 
C 3322 2470 3136 2547 2867 2586 
C 3437 2714 3789 3162 3789 3757 
C 3789 4550 3162 5043 2150 5043 
C 1146 5043 512 4544 512 3750 
C 512 3162 877 2701 1446 2586 
z
M 2150 4538 
C 2784 4538 3187 4211 3187 3699 
C 3187 3155 2797 2829 2157 2829 
C 1510 2829 1114 3162 1114 3699 
C 1114 4211 1523 4538 2150 4538 
z
M 2157 2304 
C 2912 2304 3373 1939 3373 1344 
C 3373 749 2925 410 2144 410 
C 1376 410 928 749 928 1338 
C 928 1939 1389 2304 2157 2304 
z
" transform="scale(0.015625)"/>
       </defs>
       <use xlink:href="#HiraginoSans-W4-38"/>
      </g>
     </g>
    </g>
    <g id="xtick_6">
     <g id="line2d_11">
      <path d="M 350.221523 413.851406 
L 350.221523 31.691406 
" clip-path="url(#p6a21579324)" style="fill: none; stroke-dasharray: 0.8,1.32; stroke-dashoffset: 0; stroke: #b0b0b0; stroke-opacity: 0.25; stroke-width: 0.8"/>
     </g>
     <g id="line2d_12">
      <g>
       <use xlink:href="#m92428a1711" x="350.221523" y="413.851406" style="stroke: #000000; stroke-width: 0.8"/>
      </g>
     </g>
     <g id="text_6">
      <!-- 10 -->
      <g transform="translate(343.491835 428.560781) scale(0.1 -0.1)">
       <defs>
        <path id="HiraginoSans-W4-31" d="M 1018 4371 
C 1222 4397 1389 4410 1606 4410 
L 1939 4410 
L 1939 755 
C 1939 454 1926 237 1888 0 
L 2598 0 
C 2560 250 2547 448 2547 755 
L 2547 3904 
C 2547 4256 2566 4582 2605 4966 
C 2387 4941 2278 4934 2035 4934 
L 1581 4934 
C 1325 4934 1197 4941 1018 4966 
L 1018 4371 
z
" transform="scale(0.015625)"/>
       </defs>
       <use xlink:href="#HiraginoSans-W4-31"/>
       <use xlink:href="#HiraginoSans-W4-30" transform="translate(67.299988 0)"/>
      </g>
     </g>
    </g>
    <g id="text_7">
     <!-- Over-flagging rate (variations + correct text) % -->
     <g transform="translate(82.675247 443.333437) scale(0.11 -0.11)">
      <defs>
       <path id="HiraginoSans-W4-4f" d="M 2586 5030 
C 1210 5030 320 4026 320 2470 
C 320 902 1203 -96 2579 -96 
C 3962 -96 4845 909 4845 2470 
C 4845 4038 3968 5030 2586 5030 
z
M 2592 442 
C 1594 442 941 1248 941 2470 
C 941 3699 1587 4493 2586 4493 
C 3008 4493 3386 4346 3667 4064 
C 4026 3706 4218 3155 4218 2464 
C 4218 1229 3584 442 2592 442 
z
" transform="scale(0.015625)"/>
       <path id="HiraginoSans-W4-76" d="M 51 3520 
C 198 3213 262 3072 365 2822 
L 1280 589 
C 1408 275 1446 160 1485 0 
L 2112 0 
C 2150 186 2170 237 2310 589 
L 3232 2822 
C 3411 3270 3456 3366 3539 3520 
L 2829 3520 
C 2803 3341 2758 3200 2643 2899 
L 1939 1024 
C 1888 883 1843 755 1798 602 
C 1754 736 1690 934 1651 1024 
L 947 2899 
C 851 3142 787 3360 762 3520 
L 51 3520 
z
" transform="scale(0.015625)"/>
       <path id="HiraginoSans-W4-65" d="M 3578 1651 
C 3558 1971 3546 2106 3533 2170 
C 3405 3066 2797 3610 1933 3610 
C 934 3610 282 2880 282 1760 
C 282 621 941 -96 1978 -96 
C 2470 -96 2880 64 3187 371 
C 3341 518 3424 646 3546 915 
L 3008 1114 
C 2944 928 2899 845 2803 742 
C 2605 512 2323 390 1984 390 
C 1613 390 1312 531 1114 800 
C 947 1024 883 1235 858 1651 
L 3578 1651 
z
M 877 2118 
C 915 2349 947 2451 1037 2605 
C 1229 2944 1542 3130 1920 3130 
C 2221 3130 2464 3040 2656 2854 
C 2842 2669 2938 2451 2976 2118 
L 877 2118 
z
" transform="scale(0.015625)"/>
       <path id="HiraginoSans-W4-72" d="M 2784 3520 
C 2522 3565 2394 3578 2195 3578 
C 1862 3578 1568 3488 1350 3315 
C 1242 3238 1165 3142 1056 2976 
C 1062 3027 1062 3040 1069 3085 
C 1069 3104 1069 3117 1069 3130 
C 1069 3162 1069 3181 1069 3187 
L 1069 3520 
L 442 3520 
C 474 3283 486 3104 486 2765 
L 486 755 
C 486 467 480 314 442 0 
L 1114 0 
C 1082 262 1069 448 1069 755 
L 1069 2022 
C 1101 2317 1158 2470 1312 2669 
C 1504 2912 1760 3034 2093 3034 
C 2259 3034 2381 3014 2618 2938 
L 2784 3520 
z
" transform="scale(0.015625)"/>
       <path id="HiraginoSans-W4-2d" d="M 192 1581 
C 384 1606 525 1613 781 1613 
L 1606 1613 
C 1875 1613 2010 1606 2202 1581 
L 2202 2202 
C 2022 2176 1882 2170 1606 2170 
L 781 2170 
C 512 2170 371 2176 192 2202 
L 192 1581 
z
" transform="scale(0.015625)"/>
       <path id="HiraginoSans-W4-66" d="M 922 3034 
L 922 755 
C 922 467 909 237 877 0 
L 1549 0 
C 1517 224 1504 429 1504 755 
L 1504 3034 
L 1818 3034 
C 2131 3034 2291 3021 2509 2995 
L 2509 3558 
C 2266 3533 2080 3520 1818 3520 
L 1504 3520 
L 1504 3846 
C 1504 4198 1542 4333 1670 4429 
C 1760 4493 1882 4518 2048 4518 
C 2227 4518 2394 4474 2566 4378 
L 2714 4870 
C 2470 4960 2259 4998 2010 4998 
C 1626 4998 1318 4890 1152 4691 
C 986 4506 922 4282 922 3885 
L 922 3520 
L 659 3520 
C 416 3520 243 3533 70 3558 
L 70 2995 
C 269 3021 435 3034 659 3034 
L 922 3034 
z
" transform="scale(0.015625)"/>
       <path id="HiraginoSans-W4-6c" d="M 442 4934 
C 474 4704 486 4518 486 4179 
L 486 755 
C 486 429 474 250 442 0 
L 1120 0 
C 1088 262 1075 448 1075 755 
L 1075 4179 
C 1075 4512 1088 4698 1120 4934 
L 442 4934 
z
" transform="scale(0.015625)"/>
       <path id="HiraginoSans-W4-61" d="M 2765 0 
L 3373 0 
C 3334 269 3322 422 3322 736 
L 3322 2515 
C 3322 2867 3238 3110 3046 3290 
C 2816 3514 2464 3622 1978 3622 
C 1485 3622 1094 3507 813 3270 
C 627 3123 531 2976 416 2656 
L 1011 2541 
C 1069 2714 1114 2797 1197 2886 
C 1370 3066 1626 3155 1971 3155 
C 2515 3155 2765 2950 2765 2515 
L 2765 2182 
C 1933 2163 1581 2118 1197 1997 
C 646 1818 333 1434 333 941 
C 333 320 774 -58 1491 -58 
C 1741 -58 1978 -19 2195 64 
C 2406 141 2522 218 2765 429 
L 2765 0 
z
M 2765 1363 
C 2765 1126 2707 973 2554 813 
C 2304 557 1920 397 1568 397 
C 1165 397 915 608 915 941 
C 915 1235 1075 1440 1395 1568 
C 1677 1683 2035 1728 2765 1747 
L 2765 1363 
z
" transform="scale(0.015625)"/>
       <path id="HiraginoSans-W4-67" d="M 416 -678 
C 838 -1146 1261 -1325 1920 -1325 
C 2509 -1325 3014 -1152 3290 -858 
C 3578 -557 3699 -147 3699 531 
L 3699 2778 
C 3699 3091 3712 3258 3744 3520 
L 3142 3520 
L 3142 3194 
C 3142 3123 3142 3078 3155 2976 
C 2886 3373 2477 3578 1939 3578 
C 928 3578 288 2880 288 1792 
C 288 710 915 26 1907 26 
C 2285 26 2630 134 2880 326 
C 2989 416 3053 493 3155 659 
C 3142 237 3098 -38 3027 -218 
C 2861 -627 2470 -851 1933 -851 
C 1485 -851 1165 -698 896 -346 
L 416 -678 
z
M 883 1779 
C 883 2592 1306 3098 1990 3098 
C 2675 3098 3130 2592 3130 1830 
C 3130 1037 2650 499 1952 499 
C 1293 499 883 992 883 1779 
z
" transform="scale(0.015625)"/>
       <path id="HiraginoSans-W4-69" d="M 442 4934 
L 442 4294 
L 1152 4294 
L 1152 4934 
L 442 4934 
z
M 454 3520 
C 486 3296 499 3085 499 2765 
L 499 755 
C 499 461 486 282 454 0 
L 1133 0 
C 1101 269 1088 448 1088 755 
L 1088 2758 
C 1088 3104 1101 3290 1133 3520 
L 454 3520 
z
" transform="scale(0.015625)"/>
       <path id="HiraginoSans-W4-6e" d="M 1114 0 
C 1082 256 1069 474 1069 755 
L 1069 2010 
C 1139 2272 1222 2426 1395 2630 
C 1658 2944 1933 3085 2266 3085 
C 2752 3085 3002 2797 3002 2234 
L 3002 755 
C 3002 454 2989 269 2957 0 
L 3629 0 
C 3597 218 3584 416 3584 749 
L 3584 2323 
C 3584 2662 3520 2912 3392 3110 
C 3181 3418 2816 3584 2349 3584 
C 1779 3584 1376 3360 1056 2867 
C 1069 3027 1069 3059 1069 3142 
L 1069 3520 
L 442 3520 
C 480 3264 493 3078 493 2765 
L 493 755 
C 493 429 480 256 442 0 
L 1114 0 
z
" transform="scale(0.015625)"/>
       <path id="HiraginoSans-W4-20" transform="scale(0.015625)"/>
       <path id="HiraginoSans-W4-74" d="M 851 4480 
C 877 4262 896 4006 896 3750 
L 896 3520 
L 646 3520 
C 378 3520 250 3526 70 3558 
L 70 2995 
C 275 3021 416 3034 640 3034 
L 896 3034 
L 896 787 
C 896 461 954 269 1094 134 
C 1235 6 1466 -64 1773 -64 
C 2042 -64 2246 -26 2515 83 
L 2374 602 
C 2176 486 2048 448 1875 448 
C 1741 448 1632 486 1568 544 
C 1504 608 1478 698 1478 883 
L 1478 3034 
L 1779 3034 
C 2074 3034 2221 3027 2426 2995 
L 2426 3558 
C 2214 3526 2074 3520 1773 3520 
L 1478 3520 
L 1478 3750 
C 1478 4026 1498 4275 1523 4480 
L 851 4480 
z
" transform="scale(0.015625)"/>
       <path id="HiraginoSans-W4-28" d="M 2195 -749 
C 1830 -198 1683 90 1542 538 
C 1402 986 1331 1472 1331 1978 
C 1331 2483 1402 2963 1542 3411 
C 1683 3859 1830 4147 2195 4698 
L 1715 5018 
C 1350 4461 1197 4173 1037 3712 
C 838 3155 742 2579 742 1978 
C 742 1376 838 794 1037 243 
C 1197 -218 1350 -512 1715 -1062 
L 2195 -749 
z
" transform="scale(0.015625)"/>
       <path id="HiraginoSans-W4-6f" d="M 2054 -90 
C 3110 -90 3802 640 3802 1766 
C 3802 2893 3117 3610 2042 3610 
C 966 3610 282 2886 282 1760 
C 282 627 966 -90 2054 -90 
z
M 2054 3130 
C 2771 3130 3213 2605 3213 1754 
C 3213 909 2771 397 2042 397 
C 1318 397 870 922 870 1766 
C 870 2611 1325 3130 2054 3130 
z
" transform="scale(0.015625)"/>
       <path id="HiraginoSans-W4-73" d="M 262 973 
C 326 704 378 589 480 448 
C 730 109 1184 -70 1786 -70 
C 2707 -70 3270 339 3270 1011 
C 3270 1293 3136 1555 2912 1722 
C 2720 1862 2483 1946 1894 2074 
C 1510 2157 1357 2208 1210 2285 
C 1075 2355 998 2483 998 2624 
C 998 2944 1312 3162 1760 3162 
C 2042 3162 2259 3078 2400 2925 
C 2483 2835 2515 2758 2554 2598 
L 3155 2688 
C 3066 2982 2982 3136 2810 3283 
C 2573 3494 2208 3610 1754 3610 
C 1299 3610 941 3494 698 3258 
C 518 3091 416 2861 416 2618 
C 416 2310 557 2054 819 1888 
C 1043 1747 1261 1677 1760 1574 
C 2246 1466 2349 1440 2490 1350 
C 2618 1274 2682 1139 2682 973 
C 2682 621 2342 397 1818 397 
C 1504 397 1267 474 1107 614 
C 986 730 934 832 890 1069 
L 262 973 
z
" transform="scale(0.015625)"/>
       <path id="HiraginoSans-W4-2b" d="M 2387 1498 
L 3930 1498 
L 3930 2022 
L 2387 2022 
L 2387 3558 
L 1856 3558 
L 1856 2022 
L 320 2022 
L 320 1498 
L 1856 1498 
L 1856 -38 
L 2387 -38 
L 2387 1498 
z
" transform="scale(0.015625)"/>
       <path id="HiraginoSans-W4-63" d="M 3475 2573 
C 3405 2758 3347 2867 3251 3002 
C 2970 3405 2522 3616 1965 3616 
C 947 3616 282 2874 282 1747 
C 282 627 954 -90 1990 -90 
C 2534 -90 2970 102 3258 480 
C 3366 621 3430 742 3520 986 
L 2950 1126 
C 2899 966 2867 890 2816 806 
C 2650 550 2362 410 2010 410 
C 1312 410 870 934 870 1760 
C 870 2598 1299 3130 1984 3130 
C 2438 3130 2739 2899 2912 2413 
L 3475 2573 
z
" transform="scale(0.015625)"/>
       <path id="HiraginoSans-W4-78" d="M 3469 0 
C 3238 294 3078 512 3008 614 
L 2138 1824 
L 2963 2982 
C 3021 3072 3168 3270 3206 3322 
C 3315 3462 3315 3462 3354 3520 
L 2630 3520 
C 2566 3386 2483 3238 2368 3072 
L 1792 2227 
L 1203 3072 
C 1088 3238 1024 3360 947 3520 
L 211 3520 
C 474 3174 557 3072 608 3002 
L 1440 1830 
L 531 563 
C 422 410 237 160 109 0 
L 858 0 
C 966 205 1018 294 1114 435 
L 1786 1421 
L 2426 486 
C 2566 288 2624 192 2720 0 
L 3469 0 
z
" transform="scale(0.015625)"/>
       <path id="HiraginoSans-W4-29" d="M 653 -1062 
C 1018 -512 1171 -218 1331 243 
C 1530 794 1626 1370 1626 1978 
C 1626 2579 1530 3155 1331 3712 
C 1171 4173 1018 4461 653 5018 
L 173 4698 
C 538 4147 685 3859 826 3411 
C 966 2963 1037 2490 1037 1978 
C 1037 1466 966 986 826 538 
C 685 90 538 -198 173 -749 
L 653 -1062 
z
" transform="scale(0.015625)"/>
       <path id="HiraginoSans-W4-25" d="M 1408 2259 
C 1722 2259 1997 2362 2195 2560 
C 2432 2790 2554 3162 2554 3648 
C 2554 4518 2131 5024 1408 5024 
C 1094 5024 813 4915 621 4723 
C 384 4480 262 4115 262 3629 
C 262 3162 390 2784 621 2560 
C 813 2362 1094 2259 1408 2259 
z
M 1408 4595 
C 1818 4595 2054 4250 2054 3654 
C 2054 3027 1824 2682 1408 2682 
C 992 2682 762 3027 762 3654 
C 762 4250 998 4595 1408 4595 
z
M 762 96 
L 1043 -128 
L 4966 4851 
L 4678 5075 
L 762 96 
z
M 4314 -83 
C 4627 -83 4902 19 5101 218 
C 5338 448 5459 819 5459 1306 
C 5459 2176 5043 2682 4314 2682 
C 3590 2682 3168 2170 3168 1306 
C 3168 819 3290 442 3526 218 
C 3725 19 4000 -83 4314 -83 
z
M 4314 2253 
C 4723 2253 4960 1907 4960 1312 
C 4960 685 4730 339 4314 339 
C 3898 339 3667 685 3667 1312 
C 3667 1907 3904 2253 4314 2253 
z
" transform="scale(0.015625)"/>
      </defs>
      <use xlink:href="#HiraginoSans-W4-4f"/>
      <use xlink:href="#HiraginoSans-W4-76" transform="translate(80.699982 0)"/>
      <use xlink:href="#HiraginoSans-W4-65" transform="translate(136.799973 0)"/>
      <use xlink:href="#HiraginoSans-W4-72" transform="translate(196.999969 0)"/>
      <use xlink:href="#HiraginoSans-W4-2d" transform="translate(241.699966 0)"/>
      <use xlink:href="#HiraginoSans-W4-66" transform="translate(278.999954 0)"/>
      <use xlink:href="#HiraginoSans-W4-6c" transform="translate(322.399948 0)"/>
      <use xlink:href="#HiraginoSans-W4-61" transform="translate(346.699936 0)"/>
      <use xlink:href="#HiraginoSans-W4-67" transform="translate(405.899933 0)"/>
      <use xlink:href="#HiraginoSans-W4-67" transform="translate(471.199921 0)"/>
      <use xlink:href="#HiraginoSans-W4-69" transform="translate(536.499908 0)"/>
      <use xlink:href="#HiraginoSans-W4-6e" transform="translate(561.299896 0)"/>
      <use xlink:href="#HiraginoSans-W4-67" transform="translate(624.69989 0)"/>
      <use xlink:href="#HiraginoSans-W4-20" transform="translate(689.999878 0)"/>
      <use xlink:href="#HiraginoSans-W4-72" transform="translate(723.299866 0)"/>
      <use xlink:href="#HiraginoSans-W4-61" transform="translate(767.999863 0)"/>
      <use xlink:href="#HiraginoSans-W4-74" transform="translate(827.19986 0)"/>
      <use xlink:href="#HiraginoSans-W4-65" transform="translate(867.699844 0)"/>
      <use xlink:href="#HiraginoSans-W4-20" transform="translate(927.899841 0)"/>
      <use xlink:href="#HiraginoSans-W4-28" transform="translate(961.199829 0)"/>
      <use xlink:href="#HiraginoSans-W4-76" transform="translate(998.199814 0)"/>
      <use xlink:href="#HiraginoSans-W4-61" transform="translate(1054.299805 0)"/>
      <use xlink:href="#HiraginoSans-W4-72" transform="translate(1113.499802 0)"/>
      <use xlink:href="#HiraginoSans-W4-69" transform="translate(1158.199799 0)"/>
      <use xlink:href="#HiraginoSans-W4-61" transform="translate(1182.999786 0)"/>
      <use xlink:href="#HiraginoSans-W4-74" transform="translate(1242.199783 0)"/>
      <use xlink:href="#HiraginoSans-W4-69" transform="translate(1282.699768 0)"/>
      <use xlink:href="#HiraginoSans-W4-6f" transform="translate(1307.499756 0)"/>
      <use xlink:href="#HiraginoSans-W4-6e" transform="translate(1371.299744 0)"/>
      <use xlink:href="#HiraginoSans-W4-73" transform="translate(1434.699738 0)"/>
      <use xlink:href="#HiraginoSans-W4-20" transform="translate(1489.999725 0)"/>
      <use xlink:href="#HiraginoSans-W4-2b" transform="translate(1523.299713 0)"/>
      <use xlink:href="#HiraginoSans-W4-20" transform="translate(1589.699707 0)"/>
      <use xlink:href="#HiraginoSans-W4-63" transform="translate(1622.999695 0)"/>
      <use xlink:href="#HiraginoSans-W4-6f" transform="translate(1682.099686 0)"/>
      <use xlink:href="#HiraginoSans-W4-72" transform="translate(1745.899673 0)"/>
      <use xlink:href="#HiraginoSans-W4-72" transform="translate(1790.59967 0)"/>
      <use xlink:href="#HiraginoSans-W4-65" transform="translate(1835.299667 0)"/>
      <use xlink:href="#HiraginoSans-W4-63" transform="translate(1895.499664 0)"/>
      <use xlink:href="#HiraginoSans-W4-74" transform="translate(1954.599655 0)"/>
      <use xlink:href="#HiraginoSans-W4-20" transform="translate(1995.09964 0)"/>
      <use xlink:href="#HiraginoSans-W4-74" transform="translate(2028.399628 0)"/>
      <use xlink:href="#HiraginoSans-W4-65" transform="translate(2068.899612 0)"/>
      <use xlink:href="#HiraginoSans-W4-78" transform="translate(2129.099609 0)"/>
      <use xlink:href="#HiraginoSans-W4-74" transform="translate(2184.999603 0)"/>
      <use xlink:href="#HiraginoSans-W4-29" transform="translate(2225.499588 0)"/>
      <use xlink:href="#HiraginoSans-W4-20" transform="translate(2262.499573 0)"/>
      <use xlink:href="#HiraginoSans-W4-25" transform="translate(2295.799561 0)"/>
     </g>
    </g>
   </g>
   <g id="matplotlib.axis_2">
    <g id="ytick_1">
     <g id="line2d_13">
      <path d="M 49.124375 399.697332 
L 378.608775 399.697332 
" clip-path="url(#p6a21579324)" style="fill: none; stroke-dasharray: 0.8,1.32; stroke-dashoffset: 0; stroke: #b0b0b0; stroke-opacity: 0.25; stroke-width: 0.8"/>
     </g>
     <g id="line2d_14">
      <defs>
       <path id="m3c5a7ab889" d="M 0 0 
L -3.5 0 
" style="stroke: #000000; stroke-width: 0.8"/>
      </defs>
      <g>
       <use xlink:href="#m3c5a7ab889" x="49.124375" y="399.697332" style="stroke: #000000; stroke-width: 0.8"/>
      </g>
     </g>
     <g id="text_8">
      <!-- 0 -->
      <g transform="translate(35.394688 403.55202) scale(0.1 -0.1)">
       <use xlink:href="#HiraginoSans-W4-30"/>
      </g>
     </g>
    </g>
    <g id="ytick_2">
     <g id="line2d_15">
      <path d="M 49.124375 328.926962 
L 378.608775 328.926962 
" clip-path="url(#p6a21579324)" style="fill: none; stroke-dasharray: 0.8,1.32; stroke-dashoffset: 0; stroke: #b0b0b0; stroke-opacity: 0.25; stroke-width: 0.8"/>
     </g>
     <g id="line2d_16">
      <g>
       <use xlink:href="#m3c5a7ab889" x="49.124375" y="328.926962" style="stroke: #000000; stroke-width: 0.8"/>
      </g>
     </g>
     <g id="text_9">
      <!-- 20 -->
      <g transform="translate(28.665 332.781649) scale(0.1 -0.1)">
       <use xlink:href="#HiraginoSans-W4-32"/>
       <use xlink:href="#HiraginoSans-W4-30" transform="translate(67.299988 0)"/>
      </g>
     </g>
    </g>
    <g id="ytick_3">
     <g id="line2d_17">
      <path d="M 49.124375 258.156591 
L 378.608775 258.156591 
" clip-path="url(#p6a21579324)" style="fill: none; stroke-dasharray: 0.8,1.32; stroke-dashoffset: 0; stroke: #b0b0b0; stroke-opacity: 0.25; stroke-width: 0.8"/>
     </g>
     <g id="line2d_18">
      <g>
       <use xlink:href="#m3c5a7ab889" x="49.124375" y="258.156591" style="stroke: #000000; stroke-width: 0.8"/>
      </g>
     </g>
     <g id="text_10">
      <!-- 40 -->
      <g transform="translate(28.644688 262.011279) scale(0.1 -0.1)">
       <use xlink:href="#HiraginoSans-W4-34"/>
       <use xlink:href="#HiraginoSans-W4-30" transform="translate(67.499985 0)"/>
      </g>
     </g>
    </g>
    <g id="ytick_4">
     <g id="line2d_19">
      <path d="M 49.124375 187.386221 
L 378.608775 187.386221 
" clip-path="url(#p6a21579324)" style="fill: none; stroke-dasharray: 0.8,1.32; stroke-dashoffset: 0; stroke: #b0b0b0; stroke-opacity: 0.25; stroke-width: 0.8"/>
     </g>
     <g id="line2d_20">
      <g>
       <use xlink:href="#m3c5a7ab889" x="49.124375" y="187.386221" style="stroke: #000000; stroke-width: 0.8"/>
      </g>
     </g>
     <g id="text_11">
      <!-- 60 -->
      <g transform="translate(28.665 191.240909) scale(0.1 -0.1)">
       <use xlink:href="#HiraginoSans-W4-36"/>
       <use xlink:href="#HiraginoSans-W4-30" transform="translate(67.299988 0)"/>
      </g>
     </g>
    </g>
    <g id="ytick_5">
     <g id="line2d_21">
      <path d="M 49.124375 116.615851 
L 378.608775 116.615851 
" clip-path="url(#p6a21579324)" style="fill: none; stroke-dasharray: 0.8,1.32; stroke-dashoffset: 0; stroke: #b0b0b0; stroke-opacity: 0.25; stroke-width: 0.8"/>
     </g>
     <g id="line2d_22">
      <g>
       <use xlink:href="#m3c5a7ab889" x="49.124375" y="116.615851" style="stroke: #000000; stroke-width: 0.8"/>
      </g>
     </g>
     <g id="text_12">
      <!-- 80 -->
      <g transform="translate(28.665 120.470538) scale(0.1 -0.1)">
       <use xlink:href="#HiraginoSans-W4-38"/>
       <use xlink:href="#HiraginoSans-W4-30" transform="translate(67.299988 0)"/>
      </g>
     </g>
    </g>
    <g id="ytick_6">
     <g id="line2d_23">
      <path d="M 49.124375 45.84548 
L 378.608775 45.84548 
" clip-path="url(#p6a21579324)" style="fill: none; stroke-dasharray: 0.8,1.32; stroke-dashoffset: 0; stroke: #b0b0b0; stroke-opacity: 0.25; stroke-width: 0.8"/>
     </g>
     <g id="line2d_24">
      <g>
       <use xlink:href="#m3c5a7ab889" x="49.124375" y="45.84548" style="stroke: #000000; stroke-width: 0.8"/>
      </g>
     </g>
     <g id="text_13">
      <!-- 100 -->
      <g transform="translate(21.935313 49.700168) scale(0.1 -0.1)">
       <use xlink:href="#HiraginoSans-W4-31"/>
       <use xlink:href="#HiraginoSans-W4-30" transform="translate(67.299988 0)"/>
       <use xlink:href="#HiraginoSans-W4-30" transform="translate(134.599976 0)"/>
      </g>
     </g>
    </g>
    <g id="text_14">
     <!-- Detection rate % -->
     <g transform="translate(15.680313 269.537734) rotate(-90) scale(0.11 -0.11)">
      <defs>
       <path id="HiraginoSans-W4-44" d="M 531 768 
C 531 429 518 237 480 -13 
C 710 0 870 0 1210 0 
L 2317 0 
C 2989 0 3520 192 3910 570 
C 4371 1018 4614 1683 4614 2515 
C 4614 3309 4390 3942 3949 4365 
C 3565 4749 3021 4934 2310 4934 
L 1210 4934 
C 883 4934 698 4941 480 4954 
C 518 4672 531 4493 531 4192 
L 531 768 
z
M 1126 538 
L 1126 4397 
L 2310 4397 
C 2848 4397 3226 4262 3507 3974 
C 3834 3642 3994 3155 3994 2502 
C 3994 1856 3814 1325 3475 979 
C 3187 678 2803 538 2291 538 
L 1126 538 
z
" transform="scale(0.015625)"/>
      </defs>
      <use xlink:href="#HiraginoSans-W4-44"/>
      <use xlink:href="#HiraginoSans-W4-65" transform="translate(77.099991 0)"/>
      <use xlink:href="#HiraginoSans-W4-74" transform="translate(137.299988 0)"/>
      <use xlink:href="#HiraginoSans-W4-65" transform="translate(177.799973 0)"/>
      <use xlink:href="#HiraginoSans-W4-63" transform="translate(237.999969 0)"/>
      <use xlink:href="#HiraginoSans-W4-74" transform="translate(297.09996 0)"/>
      <use xlink:href="#HiraginoSans-W4-69" transform="translate(337.599945 0)"/>
      <use xlink:href="#HiraginoSans-W4-6f" transform="translate(362.399933 0)"/>
      <use xlink:href="#HiraginoSans-W4-6e" transform="translate(426.199921 0)"/>
      <use xlink:href="#HiraginoSans-W4-20" transform="translate(489.599915 0)"/>
      <use xlink:href="#HiraginoSans-W4-72" transform="translate(522.899902 0)"/>
      <use xlink:href="#HiraginoSans-W4-61" transform="translate(567.599899 0)"/>
      <use xlink:href="#HiraginoSans-W4-74" transform="translate(626.799896 0)"/>
      <use xlink:href="#HiraginoSans-W4-65" transform="translate(667.299881 0)"/>
      <use xlink:href="#HiraginoSans-W4-20" transform="translate(727.499878 0)"/>
      <use xlink:href="#HiraginoSans-W4-25" transform="translate(760.799866 0)"/>
     </g>
    </g>
   </g>
   <g id="patch_3">
    <path d="M 49.124375 413.851406 
L 49.124375 31.691406 
" style="fill: none; stroke: #000000; stroke-width: 0.8; stroke-linejoin: miter; stroke-linecap: square"/>
   </g>
   <g id="patch_4">
    <path d="M 378.608775 413.851406 
L 378.608775 31.691406 
" style="fill: none; stroke: #000000; stroke-width: 0.8; stroke-linejoin: miter; stroke-linecap: square"/>
   </g>
   <g id="patch_5">
    <path d="M 49.124375 413.851406 
L 378.608775 413.851406 
" style="fill: none; stroke: #000000; stroke-width: 0.8; stroke-linejoin: miter; stroke-linecap: square"/>
   </g>
   <g id="patch_6">
    <path d="M 49.124375 31.691406 
L 378.608775 31.691406 
" style="fill: none; stroke: #000000; stroke-width: 0.8; stroke-linejoin: miter; stroke-linecap: square"/>
   </g>
   <g id="line2d_25">
    <path d="M 89.849266 63.538073 
L 103.20169 58.230295 
L 116.554113 51.153258 
L 116.554113 51.153258 
L 116.554113 51.153258 
L 116.554113 51.153258 
L 116.554113 51.153258 
L 116.554113 51.153258 
L 116.554113 52.922517 
L 116.554113 52.922517 
L 116.554113 52.922517 
" clip-path="url(#p6a21579324)" style="fill: none; stroke: #2d6a4f; stroke-width: 2.2; stroke-linecap: square"/>
    <defs>
     <path id="m04424c8569" d="M 0 2.5 
C 0.663008 2.5 1.29895 2.236584 1.767767 1.767767 
C 2.236584 1.29895 2.5 0.663008 2.5 0 
C 2.5 -0.663008 2.236584 -1.29895 1.767767 -1.767767 
C 1.29895 -2.236584 0.663008 -2.5 0 -2.5 
C -0.663008 -2.5 -1.29895 -2.236584 -1.767767 -1.767767 
C -2.236584 -1.29895 -2.5 -0.663008 -2.5 0 
C -2.5 0.663008 -2.236584 1.29895 -1.767767 1.767767 
C -1.29895 2.236584 -0.663008 2.5 0 2.5 
z
" style="stroke: #2d6a4f"/>
    </defs>
    <g clip-path="url(#p6a21579324)">
     <use xlink:href="#m04424c8569" x="89.849266" y="63.538073" style="fill: #2d6a4f; stroke: #2d6a4f"/>
     <use xlink:href="#m04424c8569" x="103.20169" y="58.230295" style="fill: #2d6a4f; stroke: #2d6a4f"/>
     <use xlink:href="#m04424c8569" x="116.554113" y="51.153258" style="fill: #2d6a4f; stroke: #2d6a4f"/>
     <use xlink:href="#m04424c8569" x="116.554113" y="51.153258" style="fill: #2d6a4f; stroke: #2d6a4f"/>
     <use xlink:href="#m04424c8569" x="116.554113" y="51.153258" style="fill: #2d6a4f; stroke: #2d6a4f"/>
     <use xlink:href="#m04424c8569" x="116.554113" y="51.153258" style="fill: #2d6a4f; stroke: #2d6a4f"/>
     <use xlink:href="#m04424c8569" x="116.554113" y="51.153258" style="fill: #2d6a4f; stroke: #2d6a4f"/>
     <use xlink:href="#m04424c8569" x="116.554113" y="51.153258" style="fill: #2d6a4f; stroke: #2d6a4f"/>
     <use xlink:href="#m04424c8569" x="116.554113" y="52.922517" style="fill: #2d6a4f; stroke: #2d6a4f"/>
     <use xlink:href="#m04424c8569" x="116.554113" y="52.922517" style="fill: #2d6a4f; stroke: #2d6a4f"/>
     <use xlink:href="#m04424c8569" x="116.554113" y="52.922517" style="fill: #2d6a4f; stroke: #2d6a4f"/>
    </g>
   </g>
   <g id="text_15">
    <!-- ← upper-left is better -->
    <g style="fill: #2d6a4f" transform="translate(147.969695 396.654206) scale(0.1 -0.1)">
     <defs>
      <path id="HiraginoSans-W7-2190" d="M 1901 3744 
C 1190 3104 1190 3104 250 2438 
C 979 1939 1286 1696 1901 1126 
L 2048 1299 
C 1926 1421 1888 1459 1792 1562 
C 1574 1792 1574 1792 1453 1920 
C 1280 2099 1235 2144 1082 2298 
L 6003 2298 
L 6003 2579 
L 1082 2579 
C 1478 2970 1517 3008 1574 3078 
C 1888 3424 1888 3424 2048 3597 
L 1901 3744 
z
" transform="scale(0.015625)"/>
      <path id="HiraginoSans-W7-20" transform="scale(0.015625)"/>
      <path id="HiraginoSans-W7-75" d="M 3008 3654 
C 3046 3341 3059 3104 3059 2758 
L 3059 1459 
C 2790 986 2381 678 2010 678 
C 1856 678 1728 717 1632 787 
C 1478 902 1427 1050 1427 1389 
L 1427 2758 
C 1427 3117 1440 3354 1478 3654 
L 358 3654 
C 397 3392 410 3149 410 2758 
L 410 1146 
C 410 698 525 371 755 134 
C 986 -96 1325 -218 1734 -218 
C 2278 -218 2682 -38 3072 378 
C 3066 256 3059 173 3059 122 
L 3059 -134 
L 4122 -134 
C 4083 109 4070 352 4070 762 
L 4070 2758 
C 4070 3130 4083 3366 4122 3654 
L 3008 3654 
z
" transform="scale(0.015625)"/>
      <path id="HiraginoSans-W7-70" d="M 1466 -1338 
C 1434 -1062 1421 -832 1421 -410 
L 1421 6 
C 1421 102 1414 134 1408 179 
C 1408 275 1408 275 1402 346 
C 1562 179 1664 102 1830 19 
C 2080 -96 2400 -166 2714 -166 
C 3226 -166 3667 0 3981 314 
C 4333 659 4512 1171 4512 1818 
C 4512 2458 4339 2950 4000 3283 
C 3686 3597 3258 3757 2720 3757 
C 2176 3757 1779 3603 1402 3245 
C 1408 3309 1414 3379 1414 3437 
L 1414 3654 
L 371 3654 
C 410 3360 422 3123 422 2726 
L 422 -416 
C 422 -787 403 -1050 371 -1338 
L 1466 -1338 
z
M 2502 646 
C 1882 646 1440 1126 1440 1798 
C 1440 2451 1888 2938 2502 2938 
C 3110 2938 3482 2515 3482 1818 
C 3482 1088 3110 646 2502 646 
z
" transform="scale(0.015625)"/>
      <path id="HiraginoSans-W7-65" d="M 4032 1485 
C 4019 1606 4019 1613 4019 1638 
C 3994 2118 3962 2323 3846 2637 
C 3571 3373 2963 3782 2125 3782 
C 973 3782 211 2976 211 1760 
C 211 1139 410 595 774 237 
C 1107 -96 1587 -269 2163 -269 
C 2746 -269 3232 -90 3571 250 
C 3744 416 3840 563 3981 870 
L 3053 1146 
C 2918 755 2611 544 2163 544 
C 1856 544 1606 653 1434 864 
C 1306 1024 1248 1184 1216 1485 
L 4032 1485 
z
M 1235 2227 
C 1357 2726 1664 2982 2138 2982 
C 2432 2982 2675 2874 2829 2675 
C 2925 2547 2970 2432 3008 2227 
L 1235 2227 
z
" transform="scale(0.015625)"/>
      <path id="HiraginoSans-W7-72" d="M 3277 3654 
C 3002 3712 2867 3725 2675 3725 
C 2106 3725 1696 3533 1427 3130 
L 1427 3654 
L 371 3654 
C 410 3386 422 3187 422 2758 
L 422 762 
C 422 384 410 186 371 -134 
L 1472 -134 
C 1440 141 1427 378 1427 762 
L 1427 1869 
C 1459 2170 1517 2317 1651 2477 
C 1830 2682 2080 2778 2419 2778 
C 2624 2778 2746 2758 3014 2669 
L 3277 3654 
z
" transform="scale(0.015625)"/>
      <path id="HiraginoSans-W7-2d" d="M 237 1338 
C 448 1363 602 1376 851 1376 
L 1971 1376 
C 2221 1376 2374 1363 2586 1338 
L 2586 2355 
C 2400 2330 2227 2317 1971 2317 
L 851 2317 
C 595 2317 422 2330 237 2355 
L 237 1338 
z
" transform="scale(0.015625)"/>
      <path id="HiraginoSans-W7-6c" d="M 371 5069 
C 410 4819 422 4589 422 4173 
L 422 762 
C 422 339 410 147 371 -134 
L 1491 -134 
C 1459 166 1446 397 1446 762 
L 1446 4173 
C 1446 4582 1459 4813 1491 5069 
L 371 5069 
z
" transform="scale(0.015625)"/>
      <path id="HiraginoSans-W7-66" d="M 928 2829 
L 928 762 
C 928 390 915 166 877 -134 
L 2003 -134 
C 1965 160 1952 358 1952 762 
L 1952 2829 
L 2259 2829 
C 2579 2829 2739 2816 2982 2784 
L 2982 3699 
C 2682 3667 2470 3654 2240 3654 
L 1952 3654 
L 1952 3866 
C 1952 4256 2074 4397 2413 4397 
C 2637 4397 2822 4352 3021 4243 
L 3206 5037 
C 2874 5133 2637 5165 2317 5165 
C 1376 5165 928 4781 928 3974 
L 928 3654 
L 672 3654 
C 448 3654 205 3674 58 3693 
L 58 2784 
C 262 2816 416 2829 672 2829 
L 928 2829 
z
" transform="scale(0.015625)"/>
      <path id="HiraginoSans-W7-74" d="M 813 4646 
C 851 4352 864 4141 864 3821 
L 864 3654 
L 627 3654 
C 371 3654 237 3661 51 3693 
L 51 2790 
C 250 2822 378 2829 614 2829 
L 864 2829 
L 864 768 
C 864 58 1197 -224 2022 -224 
C 2355 -224 2586 -186 2842 -96 
L 2739 742 
C 2573 646 2445 614 2272 614 
C 1971 614 1862 723 1862 1024 
L 1862 2829 
L 2144 2829 
C 2419 2829 2541 2822 2752 2790 
L 2752 3686 
C 2554 3661 2406 3654 2112 3654 
L 1862 3654 
L 1862 3821 
C 1862 4122 1882 4403 1914 4646 
L 813 4646 
z
" transform="scale(0.015625)"/>
      <path id="HiraginoSans-W7-69" d="M 384 5069 
L 384 4186 
L 1498 4186 
L 1498 5069 
L 384 5069 
z
M 371 3654 
C 410 3392 422 3149 422 2758 
L 422 762 
C 422 384 410 186 371 -134 
L 1504 -134 
C 1466 134 1453 390 1453 768 
L 1453 2752 
C 1453 3174 1466 3411 1504 3654 
L 371 3654 
z
" transform="scale(0.015625)"/>
      <path id="HiraginoSans-W7-73" d="M 211 979 
C 275 685 339 531 461 365 
C 749 -38 1280 -243 2029 -243 
C 3117 -243 3757 224 3757 1018 
C 3757 1395 3590 1683 3270 1875 
C 3027 2022 2810 2093 2157 2234 
C 1824 2304 1690 2342 1574 2400 
C 1446 2458 1376 2547 1376 2656 
C 1376 2867 1613 2995 1997 2995 
C 2381 2995 2566 2867 2605 2566 
L 3635 2688 
C 3558 3021 3456 3206 3258 3386 
C 2982 3642 2547 3776 1984 3776 
C 992 3776 384 3328 384 2592 
C 384 2189 608 1850 986 1677 
C 1210 1574 1434 1510 2035 1389 
C 2400 1312 2528 1274 2618 1210 
C 2707 1146 2752 1062 2752 960 
C 2752 723 2490 576 2074 576 
C 1766 576 1536 653 1414 794 
C 1344 877 1312 947 1274 1107 
L 211 979 
z
" transform="scale(0.015625)"/>
      <path id="HiraginoSans-W7-62" d="M 1408 -134 
L 1408 102 
C 1408 134 1402 250 1402 282 
C 1754 -83 2131 -237 2675 -237 
C 3206 -237 3629 -77 3942 243 
C 4301 614 4493 1146 4493 1805 
C 4493 3034 3834 3750 2720 3750 
C 2150 3750 1728 3571 1402 3206 
C 1408 3366 1414 3488 1414 3578 
L 1414 4141 
C 1414 4563 1421 4774 1459 5069 
L 371 5069 
C 410 4736 422 4506 422 4147 
L 422 800 
C 422 397 410 154 371 -134 
L 1408 -134 
z
M 3469 1805 
C 3469 1075 3066 589 2464 589 
C 2163 589 1862 730 1690 954 
C 1530 1165 1434 1478 1434 1779 
C 1434 2458 1875 2938 2502 2938 
C 3104 2938 3469 2509 3469 1805 
z
" transform="scale(0.015625)"/>
     </defs>
     <use xlink:href="#HiraginoSans-W7-2190"/>
     <use xlink:href="#HiraginoSans-W7-20" transform="translate(99.999985 0)"/>
     <use xlink:href="#HiraginoSans-W7-75" transform="translate(133.299973 0)"/>
     <use xlink:href="#HiraginoSans-W7-70" transform="translate(203.499954 0)"/>
     <use xlink:href="#HiraginoSans-W7-70" transform="translate(277.199936 0)"/>
     <use xlink:href="#HiraginoSans-W7-65" transform="translate(350.899918 0)"/>
     <use xlink:href="#HiraginoSans-W7-72" transform="translate(416.999908 0)"/>
     <use xlink:href="#HiraginoSans-W7-2d" transform="translate(469.099899 0)"/>
     <use xlink:href="#HiraginoSans-W7-6c" transform="translate(513.299896 0)"/>
     <use xlink:href="#HiraginoSans-W7-65" transform="translate(542.399887 0)"/>
     <use xlink:href="#HiraginoSans-W7-66" transform="translate(608.499878 0)"/>
     <use xlink:href="#HiraginoSans-W7-74" transform="translate(659.399872 0)"/>
     <use xlink:href="#HiraginoSans-W7-20" transform="translate(704.899857 0)"/>
     <use xlink:href="#HiraginoSans-W7-69" transform="translate(738.199844 0)"/>
     <use xlink:href="#HiraginoSans-W7-73" transform="translate(767.399841 0)"/>
     <use xlink:href="#HiraginoSans-W7-20" transform="translate(829.599838 0)"/>
     <use xlink:href="#HiraginoSans-W7-62" transform="translate(862.899826 0)"/>
     <use xlink:href="#HiraginoSans-W7-65" transform="translate(936.399811 0)"/>
     <use xlink:href="#HiraginoSans-W7-74" transform="translate(1002.499802 0)"/>
     <use xlink:href="#HiraginoSans-W7-74" transform="translate(1047.999786 0)"/>
     <use xlink:href="#HiraginoSans-W7-65" transform="translate(1093.499771 0)"/>
     <use xlink:href="#HiraginoSans-W7-72" transform="translate(1159.599762 0)"/>
    </g>
   </g>
   <g id="text_16">
    <!-- Detection vs over-flagging — upper-left is better -->
    <g transform="translate(35.98595 17.691406) scale(0.13 -0.13)">
     <defs>
      <path id="HiraginoSans-W7-44" d="M 486 730 
C 486 320 474 122 435 -154 
C 698 -141 870 -134 1306 -134 
L 2560 -134 
C 3315 -134 3878 58 4301 461 
C 4794 941 5050 1638 5050 2515 
C 5050 3354 4806 4019 4339 4474 
C 3923 4877 3341 5069 2554 5069 
L 1306 5069 
C 845 5069 685 5075 429 5088 
C 474 4800 486 4602 486 4205 
L 486 730 
z
M 1542 794 
L 1542 4141 
L 2470 4141 
C 2982 4141 3302 4032 3546 3782 
C 3821 3501 3955 3078 3955 2496 
C 3955 1926 3802 1466 3514 1165 
C 3270 909 2950 794 2477 794 
L 1542 794 
z
" transform="scale(0.015625)"/>
      <path id="HiraginoSans-W7-63" d="M 3917 2541 
C 3840 2765 3789 2886 3693 3034 
C 3373 3526 2835 3789 2150 3789 
C 1587 3789 1114 3610 774 3270 
C 416 2912 211 2368 211 1760 
C 211 1152 410 602 762 243 
C 1088 -90 1581 -269 2150 -269 
C 2835 -269 3360 -32 3686 429 
C 3808 602 3878 755 3962 1011 
L 2989 1184 
C 2950 1030 2925 954 2861 870 
C 2720 659 2477 544 2189 544 
C 1606 544 1242 1018 1242 1773 
C 1242 2528 1587 2982 2170 2982 
C 2426 2982 2630 2893 2778 2707 
C 2854 2611 2893 2528 2950 2330 
L 3917 2541 
z
" transform="scale(0.015625)"/>
      <path id="HiraginoSans-W7-6f" d="M 2208 -262 
C 3418 -262 4211 544 4211 1773 
C 4211 3002 3437 3782 2214 3782 
C 992 3782 211 2995 211 1760 
C 211 525 986 -262 2208 -262 
z
M 2221 2976 
C 2835 2976 3194 2522 3194 1754 
C 3194 1005 2829 557 2214 557 
C 1600 557 1229 1018 1229 1773 
C 1229 2522 1606 2976 2221 2976 
z
" transform="scale(0.015625)"/>
      <path id="HiraginoSans-W7-6e" d="M 1485 -134 
C 1446 179 1434 416 1434 762 
L 1434 2061 
C 1709 2541 2106 2835 2483 2835 
C 2637 2835 2765 2797 2861 2726 
C 3014 2611 3066 2464 3066 2131 
L 3066 762 
C 3066 403 3053 166 3014 -134 
L 4134 -134 
C 4096 128 4083 371 4083 762 
L 4083 2374 
C 4083 3245 3610 3731 2758 3731 
C 2214 3731 1811 3552 1414 3142 
C 1421 3264 1427 3347 1427 3398 
L 1427 3654 
L 371 3654 
C 410 3411 422 3168 422 2758 
L 422 762 
C 422 390 410 154 371 -134 
L 1485 -134 
z
" transform="scale(0.015625)"/>
      <path id="HiraginoSans-W7-76" d="M 51 3654 
C 173 3392 282 3142 333 3008 
L 1357 422 
C 1478 115 1510 32 1542 -134 
L 2694 -134 
C 2726 32 2752 122 2874 422 
L 3898 3008 
C 3994 3245 4090 3462 4179 3654 
L 2989 3654 
C 2976 3494 2944 3366 2848 3078 
L 2227 1171 
C 2170 992 2150 928 2118 813 
C 2086 922 2074 960 2003 1171 
L 1382 3078 
C 1299 3341 1254 3507 1242 3654 
L 51 3654 
z
" transform="scale(0.015625)"/>
      <path id="HiraginoSans-W7-61" d="M 2842 -134 
L 3878 -134 
C 3846 154 3834 346 3834 717 
L 3834 2451 
C 3834 2912 3750 3162 3533 3366 
C 3251 3635 2822 3763 2195 3763 
C 1594 3763 1133 3642 813 3392 
C 589 3219 467 3046 333 2675 
L 1344 2509 
C 1414 2688 1472 2778 1587 2861 
C 1709 2950 1939 3008 2189 3008 
C 2624 3008 2842 2854 2842 2541 
L 2842 2285 
C 2029 2259 1837 2240 1466 2163 
C 672 1984 237 1549 237 928 
C 237 589 365 294 602 96 
C 832 -109 1158 -205 1613 -205 
C 2131 -205 2458 -96 2842 198 
L 2842 -134 
z
M 2842 1357 
C 2842 1133 2765 973 2579 813 
C 2381 646 2067 538 1792 538 
C 1446 538 1254 685 1254 954 
C 1254 1197 1408 1370 1702 1459 
C 1990 1549 2259 1581 2842 1600 
L 2842 1357 
z
" transform="scale(0.015625)"/>
      <path id="HiraginoSans-W7-67" d="M 294 -659 
C 736 -1152 1229 -1344 2035 -1344 
C 2701 -1344 3258 -1197 3590 -928 
C 3974 -614 4147 -134 4147 640 
L 4147 2810 
C 4147 3174 4160 3366 4198 3654 
L 3155 3654 
L 3155 3443 
C 3155 3373 3155 3328 3162 3277 
C 2867 3590 2496 3731 1965 3731 
C 1549 3731 1203 3622 902 3405 
C 442 3066 205 2547 205 1882 
C 205 768 877 58 1926 58 
C 2464 58 2854 218 3162 563 
C 3136 128 3091 -58 2963 -243 
C 2803 -467 2470 -595 2048 -595 
C 1626 -595 1299 -442 1069 -141 
L 294 -659 
z
M 1229 1882 
C 1229 2534 1587 2963 2138 2963 
C 2707 2963 3123 2515 3123 1901 
C 3123 1498 2957 1171 2656 992 
C 2496 890 2285 832 2106 832 
C 1888 832 1651 928 1504 1075 
C 1318 1261 1229 1530 1229 1882 
z
" transform="scale(0.015625)"/>
      <path id="HiraginoSans-W7-2014" d="M 0 1306 
L 6400 1306 
L 6400 2202 
L 0 2202 
L 0 1306 
z
" transform="scale(0.015625)"/>
     </defs>
     <use xlink:href="#HiraginoSans-W7-44"/>
     <use xlink:href="#HiraginoSans-W7-65" transform="translate(82.999985 0)"/>
     <use xlink:href="#HiraginoSans-W7-74" transform="translate(149.099976 0)"/>
     <use xlink:href="#HiraginoSans-W7-65" transform="translate(194.59996 0)"/>
     <use xlink:href="#HiraginoSans-W7-63" transform="translate(260.699951 0)"/>
     <use xlink:href="#HiraginoSans-W7-74" transform="translate(325.499939 0)"/>
     <use xlink:href="#HiraginoSans-W7-69" transform="translate(370.999924 0)"/>
     <use xlink:href="#HiraginoSans-W7-6f" transform="translate(400.199921 0)"/>
     <use xlink:href="#HiraginoSans-W7-6e" transform="translate(469.299911 0)"/>
     <use xlink:href="#HiraginoSans-W7-20" transform="translate(539.499893 0)"/>
     <use xlink:href="#HiraginoSans-W7-76" transform="translate(572.799881 0)"/>
     <use xlink:href="#HiraginoSans-W7-73" transform="translate(638.899872 0)"/>
     <use xlink:href="#HiraginoSans-W7-20" transform="translate(701.099869 0)"/>
     <use xlink:href="#HiraginoSans-W7-6f" transform="translate(734.399857 0)"/>
     <use xlink:href="#HiraginoSans-W7-76" transform="translate(803.499847 0)"/>
     <use xlink:href="#HiraginoSans-W7-65" transform="translate(869.599838 0)"/>
     <use xlink:href="#HiraginoSans-W7-72" transform="translate(935.699829 0)"/>
     <use xlink:href="#HiraginoSans-W7-2d" transform="translate(987.79982 0)"/>
     <use xlink:href="#HiraginoSans-W7-66" transform="translate(1031.999817 0)"/>
     <use xlink:href="#HiraginoSans-W7-6c" transform="translate(1082.899811 0)"/>
     <use xlink:href="#HiraginoSans-W7-61" transform="translate(1111.999802 0)"/>
     <use xlink:href="#HiraginoSans-W7-67" transform="translate(1178.399796 0)"/>
     <use xlink:href="#HiraginoSans-W7-67" transform="translate(1249.699783 0)"/>
     <use xlink:href="#HiraginoSans-W7-69" transform="translate(1320.999771 0)"/>
     <use xlink:href="#HiraginoSans-W7-6e" transform="translate(1350.199768 0)"/>
     <use xlink:href="#HiraginoSans-W7-67" transform="translate(1420.39975 0)"/>
     <use xlink:href="#HiraginoSans-W7-20" transform="translate(1491.699738 0)"/>
     <use xlink:href="#HiraginoSans-W7-2014" transform="translate(1524.999725 0)"/>
     <use xlink:href="#HiraginoSans-W7-20" transform="translate(1624.99971 0)"/>
     <use xlink:href="#HiraginoSans-W7-75" transform="translate(1658.299698 0)"/>
     <use xlink:href="#HiraginoSans-W7-70" transform="translate(1728.49968 0)"/>
     <use xlink:href="#HiraginoSans-W7-70" transform="translate(1802.199661 0)"/>
     <use xlink:href="#HiraginoSans-W7-65" transform="translate(1875.899643 0)"/>
     <use xlink:href="#HiraginoSans-W7-72" transform="translate(1941.999634 0)"/>
     <use xlink:href="#HiraginoSans-W7-2d" transform="translate(1994.099625 0)"/>
     <use xlink:href="#HiraginoSans-W7-6c" transform="translate(2038.299622 0)"/>
     <use xlink:href="#HiraginoSans-W7-65" transform="translate(2067.399612 0)"/>
     <use xlink:href="#HiraginoSans-W7-66" transform="translate(2133.499603 0)"/>
     <use xlink:href="#HiraginoSans-W7-74" transform="translate(2184.399597 0)"/>
     <use xlink:href="#HiraginoSans-W7-20" transform="translate(2229.899582 0)"/>
     <use xlink:href="#HiraginoSans-W7-69" transform="translate(2263.19957 0)"/>
     <use xlink:href="#HiraginoSans-W7-73" transform="translate(2292.399567 0)"/>
     <use xlink:href="#HiraginoSans-W7-20" transform="translate(2354.599564 0)"/>
     <use xlink:href="#HiraginoSans-W7-62" transform="translate(2387.899551 0)"/>
     <use xlink:href="#HiraginoSans-W7-65" transform="translate(2461.399536 0)"/>
     <use xlink:href="#HiraginoSans-W7-74" transform="translate(2527.499527 0)"/>
     <use xlink:href="#HiraginoSans-W7-74" transform="translate(2572.999512 0)"/>
     <use xlink:href="#HiraginoSans-W7-65" transform="translate(2618.499496 0)"/>
     <use xlink:href="#HiraginoSans-W7-72" transform="translate(2684.599487 0)"/>
    </g>
   </g>
   <g id="PathCollection_1">
    <defs>
     <path id="m689512ad4e" d="M -0 9.746794 
L 9.746794 0 
L 0 -9.746794 
L -9.746794 -0 
z
" style="stroke: #ffffff; stroke-width: 1.6"/>
    </defs>
    <g clip-path="url(#p6a21579324)">
     <use xlink:href="#m689512ad4e" x="343.545311" y="395.89928" style="fill: #9aa5b1; stroke: #ffffff; stroke-width: 1.6"/>
    </g>
   </g>
   <g id="PathCollection_2">
    <defs>
     <path id="m72aea84cec" d="M -0 9.746794 
L 9.746794 0 
L 0 -9.746794 
L -9.746794 -0 
z
" style="stroke: #ffffff; stroke-width: 1.6"/>
    </defs>
    <g clip-path="url(#p6a21579324)">
     <use xlink:href="#m72aea84cec" x="143.25896" y="247.775249" style="fill: #f2a65a; stroke: #ffffff; stroke-width: 1.6"/>
    </g>
   </g>
   <g id="PathCollection_3">
    <defs>
     <path id="mfd7d656d0a" d="M 0 -6.892024 
L -6.892024 6.892024 
L 6.892024 6.892024 
z
" style="stroke: #ffffff; stroke-width: 1.6"/>
    </defs>
    <g clip-path="url(#p6a21579324)">
     <use xlink:href="#mfd7d656d0a" x="116.554113" y="51.542558" style="fill: #74c69d; stroke: #ffffff; stroke-width: 1.6"/>
    </g>
   </g>
   <g id="axes_2">
    <g id="patch_7">
     <path d="M 187.507823 253.344206 
L 368.724243 253.344206 
L 368.724243 54.621006 
L 187.507823 54.621006 
z
" style="fill: #ffffff"/>
    </g>
    <g id="matplotlib.axis_3">
     <g id="xtick_7">
      <g id="line2d_26">
       <path d="M 194.545354 253.344206 
L 194.545354 54.621006 
" clip-path="url(#pf9da7f19c1)" style="fill: none; stroke-dasharray: 0.8,1.32; stroke-dashoffset: 0; stroke: #b0b0b0; stroke-opacity: 0.25; stroke-width: 0.8"/>
      </g>
      <g id="line2d_27">
       <g>
        <use xlink:href="#m92428a1711" x="194.545354" y="253.344206" style="stroke: #000000; stroke-width: 0.8"/>
       </g>
      </g>
      <g id="text_17">
       <!-- 0.0 -->
       <g transform="translate(188.161604 266.511706) scale(0.08 -0.08)">
        <defs>
         <path id="HiraginoSans-W4-2e" d="M 442 723 
L 442 0 
L 1165 0 
L 1165 723 
L 442 723 
z
" transform="scale(0.015625)"/>
        </defs>
        <use xlink:href="#HiraginoSans-W4-30"/>
        <use xlink:href="#HiraginoSans-W4-2e" transform="translate(67.299988 0)"/>
        <use xlink:href="#HiraginoSans-W4-30" transform="translate(92.299973 0)"/>
       </g>
      </g>
     </g>
     <g id="xtick_8">
      <g id="line2d_28">
       <path d="M 223.868399 253.344206 
L 223.868399 54.621006 
" clip-path="url(#pf9da7f19c1)" style="fill: none; stroke-dasharray: 0.8,1.32; stroke-dashoffset: 0; stroke: #b0b0b0; stroke-opacity: 0.25; stroke-width: 0.8"/>
      </g>
      <g id="line2d_29">
       <g>
        <use xlink:href="#m92428a1711" x="223.868399" y="253.344206" style="stroke: #000000; stroke-width: 0.8"/>
       </g>
      </g>
      <g id="text_18">
       <!-- 0.5 -->
       <g transform="translate(217.484649 266.511706) scale(0.08 -0.08)">
        <defs>
         <path id="HiraginoSans-W4-35" d="M 1331 4416 
L 2835 4416 
C 3155 4416 3366 4403 3622 4365 
L 3622 4986 
C 3360 4947 3206 4934 2829 4934 
L 1446 4934 
C 1082 4934 954 4941 762 4966 
C 774 4768 774 4762 774 4742 
C 774 4563 774 4518 749 4307 
L 608 2822 
C 589 2566 570 2445 518 2157 
L 1088 2106 
C 1146 2240 1178 2291 1261 2374 
C 1485 2605 1811 2739 2131 2739 
C 2842 2739 3264 2317 3264 1613 
C 3264 902 2803 435 2106 435 
C 1747 435 1440 563 1235 794 
C 1146 902 1101 986 1037 1171 
L 410 1005 
C 557 685 646 544 813 378 
C 1133 64 1562 -96 2099 -96 
C 3194 -96 3885 576 3885 1638 
C 3885 2605 3245 3238 2272 3238 
C 1830 3238 1472 3098 1158 2803 
C 1197 2982 1197 2982 1203 3091 
L 1331 4416 
z
" transform="scale(0.015625)"/>
        </defs>
        <use xlink:href="#HiraginoSans-W4-30"/>
        <use xlink:href="#HiraginoSans-W4-2e" transform="translate(67.299988 0)"/>
        <use xlink:href="#HiraginoSans-W4-35" transform="translate(92.299973 0)"/>
       </g>
      </g>
     </g>
     <g id="xtick_9">
      <g id="line2d_30">
       <path d="M 253.191444 253.344206 
L 253.191444 54.621006 
" clip-path="url(#pf9da7f19c1)" style="fill: none; stroke-dasharray: 0.8,1.32; stroke-dashoffset: 0; stroke: #b0b0b0; stroke-opacity: 0.25; stroke-width: 0.8"/>
      </g>
      <g id="line2d_31">
       <g>
        <use xlink:href="#m92428a1711" x="253.191444" y="253.344206" style="stroke: #000000; stroke-width: 0.8"/>
       </g>
      </g>
      <g id="text_19">
       <!-- 1.0 -->
       <g transform="translate(246.807694 266.511706) scale(0.08 -0.08)">
        <use xlink:href="#HiraginoSans-W4-31"/>
        <use xlink:href="#HiraginoSans-W4-2e" transform="translate(67.299988 0)"/>
        <use xlink:href="#HiraginoSans-W4-30" transform="translate(92.299973 0)"/>
       </g>
      </g>
     </g>
     <g id="xtick_10">
      <g id="line2d_32">
       <path d="M 282.51449 253.344206 
L 282.51449 54.621006 
" clip-path="url(#pf9da7f19c1)" style="fill: none; stroke-dasharray: 0.8,1.32; stroke-dashoffset: 0; stroke: #b0b0b0; stroke-opacity: 0.25; stroke-width: 0.8"/>
      </g>
      <g id="line2d_33">
       <g>
        <use xlink:href="#m92428a1711" x="282.51449" y="253.344206" style="stroke: #000000; stroke-width: 0.8"/>
       </g>
      </g>
      <g id="text_20">
       <!-- 1.5 -->
       <g transform="translate(276.13074 266.511706) scale(0.08 -0.08)">
        <use xlink:href="#HiraginoSans-W4-31"/>
        <use xlink:href="#HiraginoSans-W4-2e" transform="translate(67.299988 0)"/>
        <use xlink:href="#HiraginoSans-W4-35" transform="translate(92.299973 0)"/>
       </g>
      </g>
     </g>
     <g id="xtick_11">
      <g id="line2d_34">
       <path d="M 311.837535 253.344206 
L 311.837535 54.621006 
" clip-path="url(#pf9da7f19c1)" style="fill: none; stroke-dasharray: 0.8,1.32; stroke-dashoffset: 0; stroke: #b0b0b0; stroke-opacity: 0.25; stroke-width: 0.8"/>
      </g>
      <g id="line2d_35">
       <g>
        <use xlink:href="#m92428a1711" x="311.837535" y="253.344206" style="stroke: #000000; stroke-width: 0.8"/>
       </g>
      </g>
      <g id="text_21">
       <!-- 2.0 -->
       <g transform="translate(305.453785 266.511706) scale(0.08 -0.08)">
        <use xlink:href="#HiraginoSans-W4-32"/>
        <use xlink:href="#HiraginoSans-W4-2e" transform="translate(67.299988 0)"/>
        <use xlink:href="#HiraginoSans-W4-30" transform="translate(92.299973 0)"/>
       </g>
      </g>
     </g>
     <g id="xtick_12">
      <g id="line2d_36">
       <path d="M 341.16058 253.344206 
L 341.16058 54.621006 
" clip-path="url(#pf9da7f19c1)" style="fill: none; stroke-dasharray: 0.8,1.32; stroke-dashoffset: 0; stroke: #b0b0b0; stroke-opacity: 0.25; stroke-width: 0.8"/>
      </g>
      <g id="line2d_37">
       <g>
        <use xlink:href="#m92428a1711" x="341.16058" y="253.344206" style="stroke: #000000; stroke-width: 0.8"/>
       </g>
      </g>
      <g id="text_22">
       <!-- 2.5 -->
       <g transform="translate(334.77683 266.511706) scale(0.08 -0.08)">
        <use xlink:href="#HiraginoSans-W4-32"/>
        <use xlink:href="#HiraginoSans-W4-2e" transform="translate(67.299988 0)"/>
        <use xlink:href="#HiraginoSans-W4-35" transform="translate(92.299973 0)"/>
       </g>
      </g>
     </g>
    </g>
    <g id="matplotlib.axis_4">
     <g id="ytick_7">
      <g id="line2d_38">
       <path d="M 187.507823 234.418187 
L 368.724243 234.418187 
" clip-path="url(#pf9da7f19c1)" style="fill: none; stroke-dasharray: 0.8,1.32; stroke-dashoffset: 0; stroke: #b0b0b0; stroke-opacity: 0.25; stroke-width: 0.8"/>
      </g>
      <g id="line2d_39">
       <g>
        <use xlink:href="#m3c5a7ab889" x="187.507823" y="234.418187" style="stroke: #000000; stroke-width: 0.8"/>
       </g>
      </g>
      <g id="text_23">
       <!-- 92 -->
       <g transform="translate(169.740323 237.501937) scale(0.08 -0.08)">
        <defs>
         <path id="HiraginoSans-W4-39" d="M 410 934 
C 582 576 698 422 896 262 
C 1178 32 1542 -77 2003 -77 
C 2586 -77 3014 102 3341 486 
C 3712 928 3910 1664 3910 2624 
C 3910 3302 3814 3821 3610 4186 
C 3315 4723 2765 5037 2118 5037 
C 1030 5037 326 4358 326 3315 
C 326 2861 486 2438 768 2157 
C 1050 1875 1472 1722 1958 1722 
C 2426 1722 2765 1843 3085 2125 
C 3213 2240 3270 2310 3366 2483 
C 3354 2189 3334 1958 3315 1818 
C 3270 1517 3168 1216 3046 1011 
C 2816 621 2496 435 2042 435 
C 1702 435 1427 538 1254 723 
C 1158 826 1114 915 1037 1120 
L 410 934 
z
M 2029 2221 
C 1357 2221 928 2662 928 3360 
C 928 3706 1030 3981 1248 4192 
C 1459 4403 1754 4525 2067 4525 
C 2733 4525 3232 4032 3232 3366 
C 3232 2707 2720 2221 2029 2221 
z
" transform="scale(0.015625)"/>
        </defs>
        <use xlink:href="#HiraginoSans-W4-39"/>
        <use xlink:href="#HiraginoSans-W4-32" transform="translate(67.299988 0)"/>
       </g>
      </g>
     </g>
     <g id="ytick_8">
      <g id="line2d_40">
       <path d="M 187.507823 196.566149 
L 368.724243 196.566149 
" clip-path="url(#pf9da7f19c1)" style="fill: none; stroke-dasharray: 0.8,1.32; stroke-dashoffset: 0; stroke: #b0b0b0; stroke-opacity: 0.25; stroke-width: 0.8"/>
      </g>
      <g id="line2d_41">
       <g>
        <use xlink:href="#m3c5a7ab889" x="187.507823" y="196.566149" style="stroke: #000000; stroke-width: 0.8"/>
       </g>
      </g>
      <g id="text_24">
       <!-- 94 -->
       <g transform="translate(169.724073 199.649899) scale(0.08 -0.08)">
        <use xlink:href="#HiraginoSans-W4-39"/>
        <use xlink:href="#HiraginoSans-W4-34" transform="translate(67.299988 0)"/>
       </g>
      </g>
     </g>
     <g id="ytick_9">
      <g id="line2d_42">
       <path d="M 187.507823 158.714111 
L 368.724243 158.714111 
" clip-path="url(#pf9da7f19c1)" style="fill: none; stroke-dasharray: 0.8,1.32; stroke-dashoffset: 0; stroke: #b0b0b0; stroke-opacity: 0.25; stroke-width: 0.8"/>
      </g>
      <g id="line2d_43">
       <g>
        <use xlink:href="#m3c5a7ab889" x="187.507823" y="158.714111" style="stroke: #000000; stroke-width: 0.8"/>
       </g>
      </g>
      <g id="text_25">
       <!-- 96 -->
       <g transform="translate(169.740323 161.797861) scale(0.08 -0.08)">
        <use xlink:href="#HiraginoSans-W4-39"/>
        <use xlink:href="#HiraginoSans-W4-36" transform="translate(67.299988 0)"/>
       </g>
      </g>
     </g>
     <g id="ytick_10">
      <g id="line2d_44">
       <path d="M 187.507823 120.862073 
L 368.724243 120.862073 
" clip-path="url(#pf9da7f19c1)" style="fill: none; stroke-dasharray: 0.8,1.32; stroke-dashoffset: 0; stroke: #b0b0b0; stroke-opacity: 0.25; stroke-width: 0.8"/>
      </g>
      <g id="line2d_45">
       <g>
        <use xlink:href="#m3c5a7ab889" x="187.507823" y="120.862073" style="stroke: #000000; stroke-width: 0.8"/>
       </g>
      </g>
      <g id="text_26">
       <!-- 98 -->
       <g transform="translate(169.740323 123.945823) scale(0.08 -0.08)">
        <use xlink:href="#HiraginoSans-W4-39"/>
        <use xlink:href="#HiraginoSans-W4-38" transform="translate(67.299988 0)"/>
       </g>
      </g>
     </g>
     <g id="ytick_11">
      <g id="line2d_46">
       <path d="M 187.507823 83.010035 
L 368.724243 83.010035 
" clip-path="url(#pf9da7f19c1)" style="fill: none; stroke-dasharray: 0.8,1.32; stroke-dashoffset: 0; stroke: #b0b0b0; stroke-opacity: 0.25; stroke-width: 0.8"/>
      </g>
      <g id="line2d_47">
       <g>
        <use xlink:href="#m3c5a7ab889" x="187.507823" y="83.010035" style="stroke: #000000; stroke-width: 0.8"/>
       </g>
      </g>
      <g id="text_27">
       <!-- 100 -->
       <g transform="translate(164.356573 86.093785) scale(0.08 -0.08)">
        <use xlink:href="#HiraginoSans-W4-31"/>
        <use xlink:href="#HiraginoSans-W4-30" transform="translate(67.299988 0)"/>
        <use xlink:href="#HiraginoSans-W4-30" transform="translate(134.599976 0)"/>
       </g>
      </g>
     </g>
    </g>
    <g id="patch_8">
     <path d="M 187.507823 253.344206 
L 187.507823 54.621006 
" style="fill: none; stroke: #bbbbbb; stroke-width: 0.8; stroke-linejoin: miter; stroke-linecap: square"/>
    </g>
    <g id="patch_9">
     <path d="M 368.724243 253.344206 
L 368.724243 54.621006 
" style="fill: none; stroke: #bbbbbb; stroke-width: 0.8; stroke-linejoin: miter; stroke-linecap: square"/>
    </g>
    <g id="patch_10">
     <path d="M 187.507823 253.344206 
L 368.724243 253.344206 
" style="fill: none; stroke: #bbbbbb; stroke-width: 0.8; stroke-linejoin: miter; stroke-linecap: square"/>
    </g>
    <g id="patch_11">
     <path d="M 187.507823 54.621006 
L 368.724243 54.621006 
" style="fill: none; stroke: #bbbbbb; stroke-width: 0.8; stroke-linejoin: miter; stroke-linecap: square"/>
    </g>
    <g id="line2d_48">
     <path d="M 223.153203 177.64013 
L 251.761052 149.251101 
L 280.368901 111.399063 
L 280.368901 111.399063 
L 280.368901 111.399063 
L 280.368901 111.399063 
L 280.368901 111.399063 
L 280.368901 111.399063 
L 280.368901 120.862073 
L 280.368901 120.862073 
L 280.368901 120.862073 
" clip-path="url(#pf9da7f19c1)" style="fill: none; stroke: #2d6a4f; stroke-width: 2; stroke-linecap: square"/>
     <g clip-path="url(#pf9da7f19c1)">
      <use xlink:href="#m04424c8569" x="223.153203" y="177.64013" style="fill: #2d6a4f; stroke: #2d6a4f"/>
      <use xlink:href="#m04424c8569" x="251.761052" y="149.251101" style="fill: #2d6a4f; stroke: #2d6a4f"/>
      <use xlink:href="#m04424c8569" x="280.368901" y="111.399063" style="fill: #2d6a4f; stroke: #2d6a4f"/>
      <use xlink:href="#m04424c8569" x="280.368901" y="111.399063" style="fill: #2d6a4f; stroke: #2d6a4f"/>
      <use xlink:href="#m04424c8569" x="280.368901" y="111.399063" style="fill: #2d6a4f; stroke: #2d6a4f"/>
      <use xlink:href="#m04424c8569" x="280.368901" y="111.399063" style="fill: #2d6a4f; stroke: #2d6a4f"/>
      <use xlink:href="#m04424c8569" x="280.368901" y="111.399063" style="fill: #2d6a4f; stroke: #2d6a4f"/>
      <use xlink:href="#m04424c8569" x="280.368901" y="111.399063" style="fill: #2d6a4f; stroke: #2d6a4f"/>
      <use xlink:href="#m04424c8569" x="280.368901" y="120.862073" style="fill: #2d6a4f; stroke: #2d6a4f"/>
      <use xlink:href="#m04424c8569" x="280.368901" y="120.862073" style="fill: #2d6a4f; stroke: #2d6a4f"/>
      <use xlink:href="#m04424c8569" x="280.368901" y="120.862073" style="fill: #2d6a4f; stroke: #2d6a4f"/>
     </g>
    </g>
    <g id="text_28">
     <!-- 0.50 -->
     <g style="fill: #2d6a4f" transform="translate(287.368901 114.399063) scale(0.08 -0.08)">
      <use xlink:href="#HiraginoSans-W4-30"/>
      <use xlink:href="#HiraginoSans-W4-2e" transform="translate(67.299988 0)"/>
      <use xlink:href="#HiraginoSans-W4-35" transform="translate(92.299973 0)"/>
      <use xlink:href="#HiraginoSans-W4-30" transform="translate(159.59996 0)"/>
     </g>
    </g>
    <g id="text_29">
     <!-- 0.80 -->
     <g style="fill: #2d6a4f" transform="translate(287.368901 123.862073) scale(0.08 -0.08)">
      <use xlink:href="#HiraginoSans-W4-30"/>
      <use xlink:href="#HiraginoSans-W4-2e" transform="translate(67.299988 0)"/>
      <use xlink:href="#HiraginoSans-W4-38" transform="translate(92.299973 0)"/>
      <use xlink:href="#HiraginoSans-W4-30" transform="translate(159.59996 0)"/>
     </g>
    </g>
    <g id="text_30">
     <!-- 0.90 -->
     <g style="fill: #2d6a4f" transform="translate(258.761052 152.251101) scale(0.08 -0.08)">
      <use xlink:href="#HiraginoSans-W4-30"/>
      <use xlink:href="#HiraginoSans-W4-2e" transform="translate(67.299988 0)"/>
      <use xlink:href="#HiraginoSans-W4-39" transform="translate(92.299973 0)"/>
      <use xlink:href="#HiraginoSans-W4-30" transform="translate(159.59996 0)"/>
     </g>
    </g>
    <g id="text_31">
     <!-- 0.95 -->
     <g style="fill: #2d6a4f" transform="translate(230.153203 180.64013) scale(0.08 -0.08)">
      <use xlink:href="#HiraginoSans-W4-30"/>
      <use xlink:href="#HiraginoSans-W4-2e" transform="translate(67.299988 0)"/>
      <use xlink:href="#HiraginoSans-W4-39" transform="translate(92.299973 0)"/>
      <use xlink:href="#HiraginoSans-W4-35" transform="translate(159.59996 0)"/>
     </g>
    </g>
    <g id="text_32">
     <!-- zoom (labels = threshold) -->
     <g transform="translate(220.265017 48.621006) scale(0.09 -0.09)">
      <defs>
       <path id="HiraginoSans-W4-7a" d="M 2944 3539 
C 2758 3520 2656 3520 2240 3520 
L 1075 3520 
C 768 3520 589 3533 320 3565 
L 320 2970 
C 563 3002 787 3014 1075 3014 
L 1882 3014 
C 1971 3014 2054 3014 2189 3027 
C 2112 2944 2067 2886 2003 2803 
L 640 998 
C 474 781 352 634 192 474 
L 192 -13 
C 371 0 512 0 922 0 
L 2317 0 
C 2656 0 2835 -6 3072 -38 
L 3072 557 
C 2848 525 2662 512 2317 512 
L 1357 512 
C 1306 512 1178 512 1133 506 
C 992 506 992 506 934 499 
C 1126 736 1126 736 1171 794 
L 2502 2554 
C 2650 2752 2784 2912 2944 3085 
L 2944 3539 
z
" transform="scale(0.015625)"/>
       <path id="HiraginoSans-W4-6d" d="M 1107 0 
C 1075 262 1062 442 1062 755 
L 1062 2016 
C 1062 2144 1178 2464 1286 2624 
C 1485 2912 1786 3091 2074 3091 
C 2528 3091 2765 2803 2765 2246 
L 2765 755 
C 2765 422 2752 230 2720 0 
L 3392 0 
C 3360 230 3347 416 3347 749 
L 3347 2016 
C 3347 2176 3456 2483 3571 2650 
C 3763 2931 4045 3091 4346 3091 
C 4525 3091 4672 3053 4781 2976 
C 4973 2842 5043 2637 5043 2246 
L 5043 755 
C 5043 403 5037 256 4998 0 
L 5670 0 
C 5638 230 5626 416 5626 749 
L 5626 2336 
C 5626 2733 5555 2995 5382 3206 
C 5184 3462 4864 3590 4442 3590 
C 3898 3590 3552 3398 3232 2925 
C 3168 3104 3130 3181 3034 3277 
C 2842 3488 2566 3590 2202 3590 
C 1690 3590 1280 3373 1050 2970 
C 1050 3008 1050 3008 1056 3066 
C 1056 3085 1062 3181 1062 3200 
L 1062 3520 
L 442 3520 
C 474 3290 486 3117 486 2765 
L 486 755 
C 486 435 474 243 442 0 
L 1107 0 
z
" transform="scale(0.015625)"/>
       <path id="HiraginoSans-W4-62" d="M 1050 0 
L 1050 314 
C 1043 448 1043 448 1037 506 
C 1037 518 1037 538 1037 557 
C 1338 141 1766 -64 2317 -64 
C 3341 -64 3962 634 3962 1786 
C 3962 2918 3360 3597 2355 3597 
C 1779 3597 1344 3379 1037 2931 
C 1050 3078 1056 3206 1056 3386 
L 1056 4173 
C 1056 4499 1069 4691 1101 4934 
L 442 4934 
C 474 4666 486 4461 486 4173 
L 486 774 
C 486 442 474 243 442 0 
L 1050 0 
z
M 3366 1786 
C 3366 941 2950 429 2259 429 
C 1555 429 1062 986 1062 1779 
C 1062 2566 1562 3104 2285 3104 
C 2970 3104 3366 2618 3366 1786 
z
" transform="scale(0.015625)"/>
       <path id="HiraginoSans-W4-3d" d="M 333 2720 
L 333 2195 
L 3923 2195 
L 3923 2720 
L 333 2720 
z
M 333 1376 
L 333 851 
L 3923 851 
L 3923 1376 
L 333 1376 
z
" transform="scale(0.015625)"/>
       <path id="HiraginoSans-W4-68" d="M 1107 0 
C 1075 256 1062 474 1062 755 
L 1062 2003 
C 1139 2272 1229 2438 1402 2643 
C 1645 2931 1933 3078 2259 3078 
C 2490 3078 2682 3002 2810 2861 
C 2931 2726 2995 2522 2995 2240 
L 2995 755 
C 2995 422 2982 224 2944 0 
L 3622 0 
C 3590 230 3578 448 3578 749 
L 3578 2362 
C 3578 3130 3123 3584 2355 3584 
C 1773 3584 1357 3347 1043 2854 
C 1056 3046 1062 3066 1062 3168 
L 1062 4173 
C 1062 4512 1069 4691 1107 4934 
L 442 4934 
C 480 4691 493 4512 493 4179 
L 493 755 
C 493 422 480 250 442 0 
L 1107 0 
z
" transform="scale(0.015625)"/>
       <path id="HiraginoSans-W4-64" d="M 3187 0 
L 3802 0 
C 3770 250 3757 442 3757 774 
L 3757 4173 
C 3757 4467 3770 4666 3802 4934 
L 3142 4934 
C 3174 4691 3187 4486 3187 4173 
L 3187 3398 
C 3187 3296 3187 3194 3194 3149 
C 3200 3040 3200 3040 3206 2970 
C 2918 3379 2470 3597 1901 3597 
C 909 3597 282 2886 282 1766 
C 282 1171 461 672 794 339 
C 1069 70 1446 -64 1914 -64 
C 2483 -64 2880 128 3206 563 
C 3200 480 3187 365 3187 288 
L 3187 0 
z
M 1971 3098 
C 2310 3098 2618 2976 2842 2752 
C 3059 2541 3181 2189 3181 1786 
C 3181 966 2707 429 1978 429 
C 1709 429 1459 512 1274 672 
C 1024 890 883 1280 883 1786 
C 883 2598 1293 3098 1971 3098 
z
" transform="scale(0.015625)"/>
      </defs>
      <use xlink:href="#HiraginoSans-W4-7a"/>
      <use xlink:href="#HiraginoSans-W4-6f" transform="translate(50.999985 0)"/>
      <use xlink:href="#HiraginoSans-W4-6f" transform="translate(114.799973 0)"/>
      <use xlink:href="#HiraginoSans-W4-6d" transform="translate(178.59996 0)"/>
      <use xlink:href="#HiraginoSans-W4-20" transform="translate(273.999954 0)"/>
      <use xlink:href="#HiraginoSans-W4-28" transform="translate(307.299942 0)"/>
      <use xlink:href="#HiraginoSans-W4-6c" transform="translate(344.299927 0)"/>
      <use xlink:href="#HiraginoSans-W4-61" transform="translate(368.599915 0)"/>
      <use xlink:href="#HiraginoSans-W4-62" transform="translate(427.799911 0)"/>
      <use xlink:href="#HiraginoSans-W4-65" transform="translate(494.099899 0)"/>
      <use xlink:href="#HiraginoSans-W4-6c" transform="translate(554.299896 0)"/>
      <use xlink:href="#HiraginoSans-W4-73" transform="translate(578.599884 0)"/>
      <use xlink:href="#HiraginoSans-W4-20" transform="translate(633.899872 0)"/>
      <use xlink:href="#HiraginoSans-W4-3d" transform="translate(667.19986 0)"/>
      <use xlink:href="#HiraginoSans-W4-20" transform="translate(733.599854 0)"/>
      <use xlink:href="#HiraginoSans-W4-74" transform="translate(766.899841 0)"/>
      <use xlink:href="#HiraginoSans-W4-68" transform="translate(807.399826 0)"/>
      <use xlink:href="#HiraginoSans-W4-72" transform="translate(870.699814 0)"/>
      <use xlink:href="#HiraginoSans-W4-65" transform="translate(915.399811 0)"/>
      <use xlink:href="#HiraginoSans-W4-73" transform="translate(975.599808 0)"/>
      <use xlink:href="#HiraginoSans-W4-68" transform="translate(1030.899796 0)"/>
      <use xlink:href="#HiraginoSans-W4-6f" transform="translate(1094.199783 0)"/>
      <use xlink:href="#HiraginoSans-W4-6c" transform="translate(1157.999771 0)"/>
      <use xlink:href="#HiraginoSans-W4-64" transform="translate(1182.299759 0)"/>
      <use xlink:href="#HiraginoSans-W4-29" transform="translate(1248.599747 0)"/>
     </g>
    </g>
    <g id="PathCollection_4">
     <defs>
      <path id="mc2eb505dff" d="M 0 -5.477226 
L -5.477226 5.477226 
L 5.477226 5.477226 
z
" style="stroke: #ffffff; stroke-width: 1.3"/>
     </defs>
     <g clip-path="url(#pf9da7f19c1)">
      <use xlink:href="#mc2eb505dff" x="280.368901" y="113.481264" style="fill: #74c69d; stroke: #ffffff; stroke-width: 1.3"/>
     </g>
    </g>
   </g>
   <g id="legend_1">
    <g id="patch_12">
     <path d="M 383.803619 90.751719 
L 572.473619 90.751719 
Q 574.373619 90.751719 574.373619 88.851719 
L 574.373619 33.591406 
Q 574.373619 31.691406 572.473619 31.691406 
L 383.803619 31.691406 
Q 381.903619 31.691406 381.903619 33.591406 
L 381.903619 88.851719 
Q 381.903619 90.751719 383.803619 90.751719 
z
" style="fill: #ffffff; opacity: 0.95; stroke: #cccccc; stroke-linejoin: miter"/>
    </g>
    <g id="line2d_49">
     <path d="M 385.703619 39.615 
L 395.203619 39.615 
L 404.703619 39.615 
" style="fill: none; stroke: #2d6a4f; stroke-width: 2.2; stroke-linecap: square"/>
     <g>
      <use xlink:href="#m04424c8569" x="395.203619" y="39.615" style="fill: #2d6a4f; stroke: #2d6a4f"/>
     </g>
    </g>
    <g id="text_33">
     <!-- (D) Deference (threshold sweep) -->
     <g transform="translate(412.303619 42.94) scale(0.095 -0.095)">
      <defs>
       <path id="HiraginoSans-W4-77" d="M 2592 3520 
C 2573 3398 2522 3187 2458 3002 
L 1971 1555 
C 1914 1376 1824 1043 1747 717 
C 1690 1030 1619 1344 1555 1581 
L 1197 2803 
C 1114 3078 1069 3322 1050 3520 
L 365 3520 
C 442 3309 544 3008 627 2752 
L 1318 525 
C 1408 224 1427 154 1459 0 
L 1990 0 
C 2016 128 2074 326 2138 518 
L 2720 2272 
C 2739 2330 2797 2522 2842 2694 
C 2918 2426 2944 2336 2957 2285 
L 3546 518 
C 3610 320 3661 134 3686 0 
L 4211 0 
C 4237 141 4269 243 4352 518 
L 5050 2752 
C 5190 3213 5242 3354 5306 3520 
L 4621 3520 
C 4608 3328 4563 3085 4480 2803 
L 4141 1645 
C 4051 1318 4013 1146 3923 710 
C 3846 1088 3795 1299 3731 1485 
L 3232 3002 
C 3168 3187 3110 3405 3098 3520 
L 2592 3520 
z
" transform="scale(0.015625)"/>
       <path id="HiraginoSans-W4-70" d="M 1101 -1312 
C 1069 -1075 1056 -877 1056 -550 
L 1056 128 
C 1056 301 1050 397 1037 570 
C 1363 154 1792 -51 2349 -51 
C 3334 -51 3968 659 3968 1773 
C 3968 2906 3354 3590 2336 3590 
C 1766 3590 1344 3379 1037 2944 
C 1050 3078 1050 3117 1050 3194 
L 1050 3520 
L 442 3520 
C 474 3277 486 3078 486 2752 
L 486 -557 
C 486 -845 474 -1056 442 -1312 
L 1101 -1312 
z
M 2272 442 
C 1952 442 1626 570 1421 781 
C 1197 1005 1062 1376 1062 1766 
C 1062 2547 1555 3091 2278 3091 
C 2976 3091 3373 2611 3373 1773 
C 3373 941 2957 442 2272 442 
z
" transform="scale(0.015625)"/>
      </defs>
      <use xlink:href="#HiraginoSans-W4-28"/>
      <use xlink:href="#HiraginoSans-W4-44" transform="translate(36.999985 0)"/>
      <use xlink:href="#HiraginoSans-W4-29" transform="translate(114.099976 0)"/>
      <use xlink:href="#HiraginoSans-W4-20" transform="translate(151.09996 0)"/>
      <use xlink:href="#HiraginoSans-W4-44" transform="translate(184.399948 0)"/>
      <use xlink:href="#HiraginoSans-W4-65" transform="translate(261.499939 0)"/>
      <use xlink:href="#HiraginoSans-W4-66" transform="translate(321.699936 0)"/>
      <use xlink:href="#HiraginoSans-W4-65" transform="translate(365.09993 0)"/>
      <use xlink:href="#HiraginoSans-W4-72" transform="translate(425.299927 0)"/>
      <use xlink:href="#HiraginoSans-W4-65" transform="translate(469.999924 0)"/>
      <use xlink:href="#HiraginoSans-W4-6e" transform="translate(530.199921 0)"/>
      <use xlink:href="#HiraginoSans-W4-63" transform="translate(593.599915 0)"/>
      <use xlink:href="#HiraginoSans-W4-65" transform="translate(652.699905 0)"/>
      <use xlink:href="#HiraginoSans-W4-20" transform="translate(712.899902 0)"/>
      <use xlink:href="#HiraginoSans-W4-28" transform="translate(746.19989 0)"/>
      <use xlink:href="#HiraginoSans-W4-74" transform="translate(783.199875 0)"/>
      <use xlink:href="#HiraginoSans-W4-68" transform="translate(823.69986 0)"/>
      <use xlink:href="#HiraginoSans-W4-72" transform="translate(886.999847 0)"/>
      <use xlink:href="#HiraginoSans-W4-65" transform="translate(931.699844 0)"/>
      <use xlink:href="#HiraginoSans-W4-73" transform="translate(991.899841 0)"/>
      <use xlink:href="#HiraginoSans-W4-68" transform="translate(1047.199829 0)"/>
      <use xlink:href="#HiraginoSans-W4-6f" transform="translate(1110.499817 0)"/>
      <use xlink:href="#HiraginoSans-W4-6c" transform="translate(1174.299805 0)"/>
      <use xlink:href="#HiraginoSans-W4-64" transform="translate(1198.599792 0)"/>
      <use xlink:href="#HiraginoSans-W4-20" transform="translate(1264.89978 0)"/>
      <use xlink:href="#HiraginoSans-W4-73" transform="translate(1298.199768 0)"/>
      <use xlink:href="#HiraginoSans-W4-77" transform="translate(1353.499756 0)"/>
      <use xlink:href="#HiraginoSans-W4-65" transform="translate(1442.199738 0)"/>
      <use xlink:href="#HiraginoSans-W4-65" transform="translate(1502.399734 0)"/>
      <use xlink:href="#HiraginoSans-W4-70" transform="translate(1562.599731 0)"/>
      <use xlink:href="#HiraginoSans-W4-29" transform="translate(1628.999725 0)"/>
     </g>
    </g>
    <g id="PathCollection_5">
     <g>
      <use xlink:href="#m689512ad4e" x="395.203619" y="54.467656" style="fill: #9aa5b1; stroke: #ffffff; stroke-width: 1.6"/>
     </g>
    </g>
    <g id="text_34">
     <!-- (A) textlint -->
     <g transform="translate(412.303619 56.961406) scale(0.095 -0.095)">
      <defs>
       <path id="HiraginoSans-W4-41" d="M 4826 0 
C 4730 166 4646 352 4486 742 
L 3053 4326 
C 2899 4710 2867 4806 2835 4934 
L 2054 4934 
C 2022 4781 1971 4634 1850 4326 
L 422 742 
C 269 358 198 205 83 0 
L 858 0 
C 902 230 954 397 1056 659 
L 1363 1453 
L 3546 1453 
L 3859 659 
C 3930 467 4006 218 4051 0 
L 4826 0 
z
M 3366 1978 
L 1542 1978 
L 2317 4026 
C 2330 4058 2349 4122 2381 4211 
C 2394 4256 2419 4333 2451 4422 
C 2566 4083 2566 4083 2586 4026 
L 3366 1978 
z
" transform="scale(0.015625)"/>
      </defs>
      <use xlink:href="#HiraginoSans-W4-28"/>
      <use xlink:href="#HiraginoSans-W4-41" transform="translate(36.999985 0)"/>
      <use xlink:href="#HiraginoSans-W4-29" transform="translate(113.599976 0)"/>
      <use xlink:href="#HiraginoSans-W4-20" transform="translate(150.59996 0)"/>
      <use xlink:href="#HiraginoSans-W4-74" transform="translate(183.899948 0)"/>
      <use xlink:href="#HiraginoSans-W4-65" transform="translate(224.399933 0)"/>
      <use xlink:href="#HiraginoSans-W4-78" transform="translate(284.59993 0)"/>
      <use xlink:href="#HiraginoSans-W4-74" transform="translate(340.499924 0)"/>
      <use xlink:href="#HiraginoSans-W4-6c" transform="translate(380.999908 0)"/>
      <use xlink:href="#HiraginoSans-W4-69" transform="translate(405.299896 0)"/>
      <use xlink:href="#HiraginoSans-W4-6e" transform="translate(430.099884 0)"/>
      <use xlink:href="#HiraginoSans-W4-74" transform="translate(493.499878 0)"/>
     </g>
    </g>
    <g id="PathCollection_6">
     <g>
      <use xlink:href="#m72aea84cec" x="395.203619" y="68.489062" style="fill: #f2a65a; stroke: #ffffff; stroke-width: 1.6"/>
     </g>
    </g>
    <g id="text_35">
     <!-- (B) Surface rules -->
     <g transform="translate(412.303619 70.982812) scale(0.095 -0.095)">
      <defs>
       <path id="HiraginoSans-W4-42" d="M 1216 4934 
C 838 4934 672 4941 486 4947 
C 525 4710 538 4518 538 4237 
L 538 794 
C 538 410 525 250 480 -13 
C 717 0 896 0 1216 0 
L 2694 0 
C 3699 0 4269 493 4269 1363 
C 4269 1773 4134 2099 3878 2330 
C 3706 2483 3558 2547 3251 2605 
C 3507 2688 3616 2746 3750 2867 
C 3981 3078 4096 3360 4096 3731 
C 4096 4506 3565 4934 2624 4934 
L 1216 4934 
z
M 1133 2848 
L 1133 4416 
L 2586 4416 
C 3181 4416 3488 4160 3488 3667 
C 3488 3142 3162 2848 2592 2848 
L 1133 2848 
z
M 1133 2336 
L 2611 2336 
C 3296 2336 3648 2022 3648 1421 
C 3648 832 3290 518 2630 518 
L 1133 518 
L 1133 2336 
z
" transform="scale(0.015625)"/>
       <path id="HiraginoSans-W4-53" d="M 333 1414 
C 397 966 474 755 659 518 
C 960 128 1510 -83 2234 -83 
C 3360 -83 4013 454 4013 1382 
C 4013 1805 3872 2118 3565 2355 
C 3347 2534 3027 2662 2534 2765 
C 1811 2918 1786 2931 1619 2995 
C 1274 3136 1101 3360 1101 3680 
C 1101 4166 1536 4499 2170 4499 
C 2566 4499 2880 4378 3078 4147 
C 3194 4006 3245 3885 3290 3642 
L 3936 3725 
C 3866 4051 3795 4224 3648 4416 
C 3354 4813 2842 5024 2182 5024 
C 1152 5024 486 4486 486 3661 
C 486 3213 678 2874 1056 2643 
C 1280 2502 1536 2413 1952 2317 
C 2765 2138 2822 2125 3027 2010 
C 3258 1882 3386 1651 3386 1350 
C 3386 787 2944 448 2221 448 
C 1760 448 1389 602 1184 870 
C 1062 1043 1011 1184 992 1485 
L 333 1414 
z
" transform="scale(0.015625)"/>
       <path id="HiraginoSans-W4-75" d="M 2944 3520 
C 2976 3264 2989 3046 2989 2765 
L 2989 1510 
C 2918 1248 2835 1094 2662 890 
C 2400 576 2125 435 1792 435 
C 1306 435 1056 723 1056 1286 
L 1056 2765 
C 1056 3066 1069 3251 1101 3520 
L 429 3520 
C 461 3302 474 3104 474 2771 
L 474 1197 
C 474 858 538 608 666 416 
C 877 109 1242 -58 1709 -58 
C 2272 -58 2682 166 3002 653 
C 2989 493 2989 461 2989 378 
L 2989 0 
L 3616 0 
C 3578 256 3565 442 3565 755 
L 3565 2765 
C 3565 3091 3578 3264 3616 3520 
L 2944 3520 
z
" transform="scale(0.015625)"/>
      </defs>
      <use xlink:href="#HiraginoSans-W4-28"/>
      <use xlink:href="#HiraginoSans-W4-42" transform="translate(36.999985 0)"/>
      <use xlink:href="#HiraginoSans-W4-29" transform="translate(109.099976 0)"/>
      <use xlink:href="#HiraginoSans-W4-20" transform="translate(146.09996 0)"/>
      <use xlink:href="#HiraginoSans-W4-53" transform="translate(179.399948 0)"/>
      <use xlink:href="#HiraginoSans-W4-75" transform="translate(247.59993 0)"/>
      <use xlink:href="#HiraginoSans-W4-72" transform="translate(310.999924 0)"/>
      <use xlink:href="#HiraginoSans-W4-66" transform="translate(355.699921 0)"/>
      <use xlink:href="#HiraginoSans-W4-61" transform="translate(399.099915 0)"/>
      <use xlink:href="#HiraginoSans-W4-63" transform="translate(458.299911 0)"/>
      <use xlink:href="#HiraginoSans-W4-65" transform="translate(517.399902 0)"/>
      <use xlink:href="#HiraginoSans-W4-20" transform="translate(577.599899 0)"/>
      <use xlink:href="#HiraginoSans-W4-72" transform="translate(610.899887 0)"/>
      <use xlink:href="#HiraginoSans-W4-75" transform="translate(655.599884 0)"/>
      <use xlink:href="#HiraginoSans-W4-6c" transform="translate(718.999878 0)"/>
      <use xlink:href="#HiraginoSans-W4-65" transform="translate(743.299866 0)"/>
      <use xlink:href="#HiraginoSans-W4-73" transform="translate(803.499863 0)"/>
     </g>
    </g>
    <g id="PathCollection_7">
     <g>
      <use xlink:href="#mfd7d656d0a" x="395.203619" y="82.510469" style="fill: #74c69d; stroke: #ffffff; stroke-width: 1.6"/>
     </g>
    </g>
    <g id="text_36">
     <!-- (E) Deference (int8) -->
     <g transform="translate(412.303619 85.004219) scale(0.095 -0.095)">
      <defs>
       <path id="HiraginoSans-W4-45" d="M 3872 582 
C 3629 550 3450 538 3130 538 
L 1133 538 
L 1133 2323 
L 2778 2323 
C 3130 2323 3302 2310 3533 2278 
L 3533 2899 
C 3283 2867 3078 2854 2778 2854 
L 1133 2854 
L 1133 4397 
L 3066 4397 
C 3405 4397 3597 4384 3814 4352 
L 3814 4979 
C 3603 4947 3366 4934 3066 4934 
L 1210 4934 
C 896 4934 698 4941 480 4954 
C 518 4659 531 4486 531 4192 
L 531 768 
C 531 429 518 224 480 -13 
C 717 0 870 0 1210 0 
L 3130 0 
C 3482 0 3654 -6 3872 -38 
L 3872 582 
z
" transform="scale(0.015625)"/>
      </defs>
      <use xlink:href="#HiraginoSans-W4-28"/>
      <use xlink:href="#HiraginoSans-W4-45" transform="translate(36.999985 0)"/>
      <use xlink:href="#HiraginoSans-W4-29" transform="translate(102.499969 0)"/>
      <use xlink:href="#HiraginoSans-W4-20" transform="translate(139.499954 0)"/>
      <use xlink:href="#HiraginoSans-W4-44" transform="translate(172.799942 0)"/>
      <use xlink:href="#HiraginoSans-W4-65" transform="translate(249.899933 0)"/>
      <use xlink:href="#HiraginoSans-W4-66" transform="translate(310.09993 0)"/>
      <use xlink:href="#HiraginoSans-W4-65" transform="translate(353.499924 0)"/>
      <use xlink:href="#HiraginoSans-W4-72" transform="translate(413.699921 0)"/>
      <use xlink:href="#HiraginoSans-W4-65" transform="translate(458.399918 0)"/>
      <use xlink:href="#HiraginoSans-W4-6e" transform="translate(518.599915 0)"/>
      <use xlink:href="#HiraginoSans-W4-63" transform="translate(581.999908 0)"/>
      <use xlink:href="#HiraginoSans-W4-65" transform="translate(641.099899 0)"/>
      <use xlink:href="#HiraginoSans-W4-20" transform="translate(701.299896 0)"/>
      <use xlink:href="#HiraginoSans-W4-28" transform="translate(734.599884 0)"/>
      <use xlink:href="#HiraginoSans-W4-69" transform="translate(771.599869 0)"/>
      <use xlink:href="#HiraginoSans-W4-6e" transform="translate(796.399857 0)"/>
      <use xlink:href="#HiraginoSans-W4-74" transform="translate(859.79985 0)"/>
      <use xlink:href="#HiraginoSans-W4-38" transform="translate(900.299835 0)"/>
      <use xlink:href="#HiraginoSans-W4-29" transform="translate(967.599823 0)"/>
     </g>
    </g>
   </g>
  </g>
 </g>
 <defs>
  <clipPath id="p6a21579324">
   <rect x="49.124375" y="31.691406" width="329.4844" height="382.16"/>
  </clipPath>
  <clipPath id="pf9da7f19c1">
   <rect x="187.507823" y="54.621006" width="181.21642" height="198.7232"/>
  </clipPath>
 </defs>
</svg>
